{
 "asset": {
  "generator": "Khronos glTF Blender I/O v4.5.49",
  "version": "2.0"
 },
 "scene": 0,
 "scenes": [
  {
   "name": "Scene",
   "nodes": [
    21
   ]
  }
 ],
 "nodes": [
  {
   "name": "head",
   "rotation": [
    -0.07702764123678207,
    0,
    0,
    0.9970289468765259
   ],
   "scale": [
    1,
    0.9999999403953552,
    0.9999999403953552
   ],
   "translation": [
    0,
    0.05727958679199219,
    6.51925802230835e-09
   ]
  },
  {
   "children": [
    0
   ],
   "name": "neck",
   "rotation": [
    0.08762817084789276,
    0,
    0,
    0.9961532354354858
   ],
   "translation": [
    0,
    0.2350001335144043,
    0
   ]
  },
  {
   "name": "hand_l",
   "rotation": [
    0.02624208852648735,
    -3.3576423419390267e-08,
    0.022019799798727036,
    0.9994130730628967
   ],
   "scale": [
    0.9999999403953552,
    0.9999999403953552,
    1
   ],
   "translation": [
    1.364387571811676e-07,
    0.2920854985713959,
    -4.423782229423523e-08
   ]
  },
  {
   "children": [
    2
   ],
   "name": "forearm_l",
   "rotation": [
    -0.05014901980757713,
    -1.2319885911438178e-07,
    -0.042079996317625046,
    0.9978548884391785
   ],
   "scale": [
    0.9999999403953552,
    0.9999998807907104,
    0.9999999403953552
   ],
   "translation": [
    1.210719347000122e-07,
    0.32022520899772644,
    1.4528632164001465e-07
   ]
  },
  {
   "children": [
    3
   ],
   "name": "upperarm_l",
   "rotation": [
    -0.3238022029399872,
    -0.3408990502357483,
    0.20202836394309998,
    0.8591417074203491
   ],
   "scale": [
    0.9999999403953552,
    1,
    0.9999998807907104
   ],
   "translation": [
    -2.0372681319713593e-08,
    0.20586024224758148,
    -5.6694261729717255e-08
   ]
  },
  {
   "children": [
    4
   ],
   "name": "clavicle_l",
   "rotation": [
    -0.5456618070602417,
    -0.49791061878204346,
    -0.49791067838668823,
    0.4543382227420807
   ],
   "scale": [
    0.9999999403953552,
    0.9999998807907104,
    1
   ],
   "translation": [
    0,
    0.1729600429534912,
    -0.009999999776482582
   ]
  },
  {
   "name": "hand_r",
   "rotation": [
    0.02624208852648735,
    3.3576423419390267e-08,
    -0.022019799798727036,
    0.9994130730628967
   ],
   "scale": [
    0.9999999403953552,
    0.9999999403953552,
    1
   ],
   "translation": [
    -1.364387571811676e-07,
    0.2920854985713959,
    -4.423782229423523e-08
   ]
  },
  {
   "children": [
    6
   ],
   "name": "forearm_r",
   "rotation": [
    -0.05014901980757713,
    1.2319885911438178e-07,
    0.042079996317625046,
    0.9978548884391785
   ],
   "scale": [
    0.9999999403953552,
    0.9999998807907104,
    0.9999999403953552
   ],
   "translation": [
    -1.210719347000122e-07,
    0.32022520899772644,
    1.4528632164001465e-07
   ]
  },
  {
   "children": [
    7
   ],
   "name": "upperarm_r",
   "rotation": [
    -0.3238022029399872,
    0.3408990502357483,
    -0.20202836394309998,
    0.8591417074203491
   ],
   "scale": [
    0.9999999403953552,
    1,
    0.9999998807907104
   ],
   "translation": [
    2.0372681319713593e-08,
    0.20586024224758148,
    -5.6694261729717255e-08
   ]
  },
  {
   "children": [
    8
   ],
   "name": "clavicle_r",
   "rotation": [
    -0.5456618070602417,
    0.49791061878204346,
    0.49791067838668823,
    0.4543382227420807
   ],
   "scale": [
    0.9999999403953552,
    0.9999998807907104,
    1
   ],
   "translation": [
    0,
    0.1729600429534912,
    -0.009999999776482582
   ]
  },
  {
   "children": [
    1,
    5,
    9
   ],
   "name": "chest",
   "rotation": [
    -0.01329434011131525,
    0,
    0,
    0.9999116659164429
   ],
   "translation": [
    0,
    0.18806660175323486,
    4.654966967443386e-10
   ]
  },
  {
   "children": [
    10
   ],
   "name": "spine",
   "rotation": [
    0.028062166646122932,
    0,
    0,
    0.999606192111969
   ],
   "translation": [
    0,
    0.16927383840084076,
    1.3969838619232178e-09
   ]
  },
  {
   "name": "foot_l",
   "rotation": [
    -0.634364664554596,
    0.12799480557441711,
    -0.14112980663776398,
    0.7491869926452637
   ],
   "scale": [
    1.0000001192092896,
    1,
    0.9999999403953552
   ],
   "translation": [
    3.077730070799589e-09,
    0.43313854932785034,
    -5.820766091346741e-11
   ]
  },
  {
   "children": [
    12
   ],
   "name": "calf_l",
   "rotation": [
    0.04657802730798721,
    0.00868407916277647,
    -0.008795889094471931,
    0.9988381862640381
   ],
   "scale": [
    0.9999999403953552,
    1,
    1.0000001192092896
   ],
   "translation": [
    -1.7680577002465725e-08,
    0.42328256368637085,
    1.1641532182693481e-10
   ]
  },
  {
   "children": [
    13
   ],
   "name": "thigh_l",
   "rotation": [
    0.9999752640724182,
    -0.004455042537301779,
    -0.004588702693581581,
    0.002931447234004736
   ],
   "scale": [
    1,
    0.9999997615814209,
    1
   ],
   "translation": [
    0.09775999933481216,
    -0.05637544393539429,
    -0.0016659421380609274
   ]
  },
  {
   "name": "foot_r",
   "rotation": [
    -0.634364664554596,
    -0.12799480557441711,
    0.14112980663776398,
    0.7491869926452637
   ],
   "scale": [
    1.0000001192092896,
    1,
    0.9999999403953552
   ],
   "translation": [
    -3.077730070799589e-09,
    0.43313854932785034,
    -5.820766091346741e-11
   ]
  },
  {
   "children": [
    15
   ],
   "name": "calf_r",
   "rotation": [
    0.04657802730798721,
    -0.00868407916277647,
    0.008795889094471931,
    0.9988381862640381
   ],
   "scale": [
    0.9999999403953552,
    1,
    1.0000001192092896
   ],
   "translation": [
    1.7680577002465725e-08,
    0.42328256368637085,
    1.1641532182693481e-10
   ]
  },
  {
   "children": [
    16
   ],
   "name": "thigh_r",
   "rotation": [
    0.9999752640724182,
    0.004455042537301779,
    0.004588702693581581,
    0.002931447234004736
   ],
   "scale": [
    1,
    0.9999997615814209,
    1
   ],
   "translation": [
    -0.09775999933481216,
    -0.05637544393539429,
    -0.0016659421380609274
   ]
  },
  {
   "children": [
    11,
    14,
    17
   ],
   "name": "pelvis",
   "rotation": [
    -0.014770584180951118,
    0,
    0,
    0.999890923500061
   ],
   "scale": [
    1,
    0.9999999403953552,
    0.9999999403953552
   ],
   "translation": [
    0,
    0.996399998664856,
    0
   ]
  },
  {
   "children": [
    18
   ],
   "name": "root"
  },
  {
   "mesh": 0,
   "name": "beard_long_male",
   "skin": 0
  },
  {
   "children": [
    20,
    19
   ],
   "name": "beard_long_male_rig"
  }
 ],
 "materials": [
  {
   "name": "beard_long_male_baked",
   "normalTexture": {
    "index": 0
   },
   "pbrMetallicRoughness": {
    "baseColorTexture": {
     "index": 1
    },
    "metallicRoughnessTexture": {
     "index": 2
    }
   }
  }
 ],
 "meshes": [
  {
   "extras": {
    "targetNames": [
     "face_stern",
     "face_gaunt",
     "face_broad",
     "face_sharp",
     "face_weathered"
    ]
   },
   "name": "beard_long_male",
   "primitives": [
    {
     "attributes": {
      "POSITION": 0,
      "NORMAL": 1,
      "TEXCOORD_0": 2,
      "JOINTS_0": 3,
      "WEIGHTS_0": 4
     },
     "indices": 5,
     "material": 0,
     "targets": [
      {
       "POSITION": 6,
       "NORMAL": 7
      },
      {
       "POSITION": 8,
       "NORMAL": 9
      },
      {
       "POSITION": 10,
       "NORMAL": 11
      },
      {
       "POSITION": 12,
       "NORMAL": 13
      },
      {
       "POSITION": 14,
       "NORMAL": 15
      }
     ]
    }
   ],
   "weights": [
    0,
    0,
    0,
    0,
    0
   ]
  }
 ],
 "textures": [
  {
   "sampler": 0,
   "source": 0
  },
  {
   "sampler": 0,
   "source": 1
  },
  {
   "sampler": 0,
   "source": 2
  }
 ],
 "images": [
  {
   "mimeType": "image/jpeg",
   "name": "beard_long_male_normal",
   "uri": "beard_long_male_normal.jpg"
  },
  {
   "mimeType": "image/jpeg",
   "name": "beard_long_male_albedo",
   "uri": "beard_long_male_albedo.jpg"
  },
  {
   "mimeType": "image/jpeg",
   "name": "beard_long_male_orm",
   "uri": "beard_long_male_orm.jpg"
  }
 ],
 "skins": [
  {
   "inverseBindMatrices": 16,
   "joints": [
    19,
    18,
    11,
    10,
    1,
    0,
    5,
    4,
    3,
    2,
    9,
    8,
    7,
    6,
    14,
    13,
    12,
    17,
    16,
    15
   ],
   "name": "beard_long_male_rig"
  }
 ],
 "accessors": [
  {
   "bufferView": 0,
   "componentType": 5126,
   "count": 4583,
   "max": [
    0.09120440483093262,
    1.7275832891464233,
    0.12365793436765671
   ],
   "min": [
    -0.091416135430336,
    1.5013948678970337,
    0.0019542360678315163
   ],
   "type": "VEC3"
  },
  {
   "bufferView": 1,
   "componentType": 5126,
   "count": 4583,
   "type": "VEC3"
  },
  {
   "bufferView": 2,
   "componentType": 5126,
   "count": 4583,
   "type": "VEC2"
  },
  {
   "bufferView": 3,
   "componentType": 5121,
   "count": 4583,
   "type": "VEC4"
  },
  {
   "bufferView": 4,
   "componentType": 5126,
   "count": 4583,
   "type": "VEC4"
  },
  {
   "bufferView": 5,
   "componentType": 5123,
   "count": 18000,
   "type": "SCALAR"
  },
  {
   "componentType": 5126,
   "count": 4583,
   "max": [
    0.00750114768743515,
    0.003831028938293457,
    0.003190375864505768
   ],
   "min": [
    -0.007526561617851257,
    -0.004230022430419922,
    -0.006005778908729553
   ],
   "sparse": {
    "count": 3492,
    "indices": {
     "bufferView": 6,
     "componentType": 5123
    },
    "values": {
     "bufferView": 7
    }
   },
   "type": "VEC3"
  },
  {
   "componentType": 5126,
   "count": 4583,
   "sparse": {
    "count": 3885,
    "indices": {
     "bufferView": 8,
     "componentType": 5123
    },
    "values": {
     "bufferView": 9
    }
   },
   "type": "VEC3"
  },
  {
   "componentType": 5126,
   "count": 4583,
   "max": [
    0.020930547267198563,
    0.013153672218322754,
    0.008750807493925095
   ],
   "min": [
    -0.019918493926525116,
    -0.0024739503860473633,
    -0.015335798263549805
   ],
   "sparse": {
    "count": 3267,
    "indices": {
     "bufferView": 10,
     "componentType": 5123
    },
    "values": {
     "bufferView": 11
    }
   },
   "type": "VEC3"
  },
  {
   "componentType": 5126,
   "count": 4583,
   "sparse": {
    "count": 3768,
    "indices": {
     "bufferView": 12,
     "componentType": 5123
    },
    "values": {
     "bufferView": 13
    }
   },
   "type": "VEC3"
  },
  {
   "componentType": 5126,
   "count": 4583,
   "max": [
    0.011444993317127228,
    0.004108548164367676,
    0.005814817734062672
   ],
   "min": [
    -0.011606119573116302,
    -0.007310986518859863,
    -0.0058698877692222595
   ],
   "sparse": {
    "count": 3204,
    "indices": {
     "bufferView": 14,
     "componentType": 5123
    },
    "values": {
     "bufferView": 15
    }
   },
   "type": "VEC3"
  },
  {
   "componentType": 5126,
   "count": 4583,
   "sparse": {
    "count": 3611,
    "indices": {
     "bufferView": 16,
     "componentType": 5123
    },
    "values": {
     "bufferView": 17
    }
   },
   "type": "VEC3"
  },
  {
   "componentType": 5126,
   "count": 4583,
   "max": [
    0.004522062838077545,
    0.003911018371582031,
    0.002365410327911377
   ],
   "min": [
    -0.004585571587085724,
    -0.0024083852767944336,
    -0.00597023218870163
   ],
   "sparse": {
    "count": 3375,
    "indices": {
     "bufferView": 18,
     "componentType": 5123
    },
    "values": {
     "bufferView": 19
    }
   },
   "type": "VEC3"
  },
  {
   "componentType": 5126,
   "count": 4583,
   "sparse": {
    "count": 3820,
    "indices": {
     "bufferView": 20,
     "componentType": 5123
    },
    "values": {
     "bufferView": 21
    }
   },
   "type": "VEC3"
  },
  {
   "componentType": 5126,
   "count": 4583,
   "max": [
    0.01994306966662407,
    0.012732386589050293,
    0.009113367646932602
   ],
   "min": [
    -0.019822750240564346,
    -0.0028189420700073242,
    -0.015125744044780731
   ],
   "sparse": {
    "count": 3042,
    "indices": {
     "bufferView": 22,
     "componentType": 5123
    },
    "values": {
     "bufferView": 23
    }
   },
   "type": "VEC3"
  },
  {
   "componentType": 5126,
   "count": 4583,
   "sparse": {
    "count": 3652,
    "indices": {
     "bufferView": 24,
     "componentType": 5123
    },
    "values": {
     "bufferView": 25
    }
   },
   "type": "VEC3"
  },
  {
   "bufferView": 26,
   "componentType": 5126,
   "count": 20,
   "type": "MAT4"
  }
 ],
 "bufferViews": [
  {
   "buffer": 0,
   "byteLength": 54996,
   "byteOffset": 0,
   "target": 34962
  },
  {
   "buffer": 0,
   "byteLength": 54996,
   "byteOffset": 54996,
   "target": 34962
  },
  {
   "buffer": 0,
   "byteLength": 36664,
   "byteOffset": 109992,
   "target": 34962
  },
  {
   "buffer": 0,
   "byteLength": 18332,
   "byteOffset": 146656,
   "target": 34962
  },
  {
   "buffer": 0,
   "byteLength": 73328,
   "byteOffset": 164988,
   "target": 34962
  },
  {
   "buffer": 0,
   "byteLength": 36000,
   "byteOffset": 238316,
   "target": 34963
  },
  {
   "buffer": 0,
   "byteLength": 6984,
   "byteOffset": 274316
  },
  {
   "buffer": 0,
   "byteLength": 41904,
   "byteOffset": 281300
  },
  {
   "buffer": 0,
   "byteLength": 7770,
   "byteOffset": 323204
  },
  {
   "buffer": 0,
   "byteLength": 46620,
   "byteOffset": 330976
  },
  {
   "buffer": 0,
   "byteLength": 6534,
   "byteOffset": 377596
  },
  {
   "buffer": 0,
   "byteLength": 39204,
   "byteOffset": 384132
  },
  {
   "buffer": 0,
   "byteLength": 7536,
   "byteOffset": 423336
  },
  {
   "buffer": 0,
   "byteLength": 45216,
   "byteOffset": 430872
  },
  {
   "buffer": 0,
   "byteLength": 6408,
   "byteOffset": 476088
  },
  {
   "buffer": 0,
   "byteLength": 38448,
   "byteOffset": 482496
  },
  {
   "buffer": 0,
   "byteLength": 7222,
   "byteOffset": 520944
  },
  {
   "buffer": 0,
   "byteLength": 43332,
   "byteOffset": 528168
  },
  {
   "buffer": 0,
   "byteLength": 6750,
   "byteOffset": 571500
  },
  {
   "buffer": 0,
   "byteLength": 40500,
   "byteOffset": 578252
  },
  {
   "buffer": 0,
   "byteLength": 7640,
   "byteOffset": 618752
  },
  {
   "buffer": 0,
   "byteLength": 45840,
   "byteOffset": 626392
  },
  {
   "buffer": 0,
   "byteLength": 6084,
   "byteOffset": 672232
  },
  {
   "buffer": 0,
   "byteLength": 36504,
   "byteOffset": 678316
  },
  {
   "buffer": 0,
   "byteLength": 7304,
   "byteOffset": 714820
  },
  {
   "buffer": 0,
   "byteLength": 43824,
   "byteOffset": 722124
  },
  {
   "buffer": 0,
   "byteLength": 1280,
   "byteOffset": 765948
  }
 ],
 "samplers": [
  {
   "magFilter": 9729,
   "minFilter": 9987
  }
 ],
 "buffers": [
  {
   "byteLength": 767228,
   "uri": "beard_long_male.bin"
  }
 ]
}