{
 "asset": {
  "generator": "Khronos glTF Blender I/O v4.5.49",
  "version": "2.0"
 },
 "scene": 0,
 "scenes": [
  {
   "name": "Scene",
   "nodes": [
    21
   ]
  }
 ],
 "nodes": [
  {
   "name": "head",
   "rotation": [
    -0.07702764123678207,
    0,
    0,
    0.9970289468765259
   ],
   "scale": [
    1,
    0.9999999403953552,
    0.9999999403953552
   ],
   "translation": [
    0,
    0.05727958679199219,
    6.51925802230835e-09
   ]
  },
  {
   "children": [
    0
   ],
   "name": "neck",
   "rotation": [
    0.08762817084789276,
    0,
    0,
    0.9961532354354858
   ],
   "translation": [
    0,
    0.2350001335144043,
    0
   ]
  },
  {
   "name": "hand_l",
   "rotation": [
    0.02624208852648735,
    -3.3576423419390267e-08,
    0.022019799798727036,
    0.9994130730628967
   ],
   "scale": [
    0.9999999403953552,
    0.9999999403953552,
    1
   ],
   "translation": [
    1.364387571811676e-07,
    0.2920854985713959,
    -4.423782229423523e-08
   ]
  },
  {
   "children": [
    2
   ],
   "name": "forearm_l",
   "rotation": [
    -0.05014901980757713,
    -1.2319885911438178e-07,
    -0.042079996317625046,
    0.9978548884391785
   ],
   "scale": [
    0.9999999403953552,
    0.9999998807907104,
    0.9999999403953552
   ],
   "translation": [
    1.210719347000122e-07,
    0.32022520899772644,
    1.4528632164001465e-07
   ]
  },
  {
   "children": [
    3
   ],
   "name": "upperarm_l",
   "rotation": [
    -0.3238022029399872,
    -0.3408990502357483,
    0.20202836394309998,
    0.8591417074203491
   ],
   "scale": [
    0.9999999403953552,
    1,
    0.9999998807907104
   ],
   "translation": [
    -2.0372681319713593e-08,
    0.20586024224758148,
    -5.6694261729717255e-08
   ]
  },
  {
   "children": [
    4
   ],
   "name": "clavicle_l",
   "rotation": [
    -0.5456618070602417,
    -0.49791061878204346,
    -0.49791067838668823,
    0.4543382227420807
   ],
   "scale": [
    0.9999999403953552,
    0.9999998807907104,
    1
   ],
   "translation": [
    0,
    0.1729600429534912,
    -0.009999999776482582
   ]
  },
  {
   "name": "hand_r",
   "rotation": [
    0.02624208852648735,
    3.3576423419390267e-08,
    -0.022019799798727036,
    0.9994130730628967
   ],
   "scale": [
    0.9999999403953552,
    0.9999999403953552,
    1
   ],
   "translation": [
    -1.364387571811676e-07,
    0.2920854985713959,
    -4.423782229423523e-08
   ]
  },
  {
   "children": [
    6
   ],
   "name": "forearm_r",
   "rotation": [
    -0.05014901980757713,
    1.2319885911438178e-07,
    0.042079996317625046,
    0.9978548884391785
   ],
   "scale": [
    0.9999999403953552,
    0.9999998807907104,
    0.9999999403953552
   ],
   "translation": [
    -1.210719347000122e-07,
    0.32022520899772644,
    1.4528632164001465e-07
   ]
  },
  {
   "children": [
    7
   ],
   "name": "upperarm_r",
   "rotation": [
    -0.3238022029399872,
    0.3408990502357483,
    -0.20202836394309998,
    0.8591417074203491
   ],
   "scale": [
    0.9999999403953552,
    1,
    0.9999998807907104
   ],
   "translation": [
    2.0372681319713593e-08,
    0.20586024224758148,
    -5.6694261729717255e-08
   ]
  },
  {
   "children": [
    8
   ],
   "name": "clavicle_r",
   "rotation": [
    -0.5456618070602417,
    0.49791061878204346,
    0.49791067838668823,
    0.4543382227420807
   ],
   "scale": [
    0.9999999403953552,
    0.9999998807907104,
    1
   ],
   "translation": [
    0,
    0.1729600429534912,
    -0.009999999776482582
   ]
  },
  {
   "children": [
    1,
    5,
    9
   ],
   "name": "chest",
   "rotation": [
    -0.01329434011131525,
    0,
    0,
    0.9999116659164429
   ],
   "translation": [
    0,
    0.18806660175323486,
    4.654966967443386e-10
   ]
  },
  {
   "children": [
    10
   ],
   "name": "spine",
   "rotation": [
    0.028062166646122932,
    0,
    0,
    0.999606192111969
   ],
   "translation": [
    0,
    0.16927383840084076,
    1.3969838619232178e-09
   ]
  },
  {
   "name": "foot_l",
   "rotation": [
    -0.634364664554596,
    0.12799480557441711,
    -0.14112980663776398,
    0.7491869926452637
   ],
   "scale": [
    1.0000001192092896,
    1,
    0.9999999403953552
   ],
   "translation": [
    3.077730070799589e-09,
    0.43313854932785034,
    -5.820766091346741e-11
   ]
  },
  {
   "children": [
    12
   ],
   "name": "calf_l",
   "rotation": [
    0.04657802730798721,
    0.00868407916277647,
    -0.008795889094471931,
    0.9988381862640381
   ],
   "scale": [
    0.9999999403953552,
    1,
    1.0000001192092896
   ],
   "translation": [
    -1.7680577002465725e-08,
    0.42328256368637085,
    1.1641532182693481e-10
   ]
  },
  {
   "children": [
    13
   ],
   "name": "thigh_l",
   "rotation": [
    0.9999752640724182,
    -0.004455042537301779,
    -0.004588702693581581,
    0.002931447234004736
   ],
   "scale": [
    1,
    0.9999997615814209,
    1
   ],
   "translation": [
    0.09775999933481216,
    -0.05637544393539429,
    -0.0016659421380609274
   ]
  },
  {
   "name": "foot_r",
   "rotation": [
    -0.634364664554596,
    -0.12799480557441711,
    0.14112980663776398,
    0.7491869926452637
   ],
   "scale": [
    1.0000001192092896,
    1,
    0.9999999403953552
   ],
   "translation": [
    -3.077730070799589e-09,
    0.43313854932785034,
    -5.820766091346741e-11
   ]
  },
  {
   "children": [
    15
   ],
   "name": "calf_r",
   "rotation": [
    0.04657802730798721,
    -0.00868407916277647,
    0.008795889094471931,
    0.9988381862640381
   ],
   "scale": [
    0.9999999403953552,
    1,
    1.0000001192092896
   ],
   "translation": [
    1.7680577002465725e-08,
    0.42328256368637085,
    1.1641532182693481e-10
   ]
  },
  {
   "children": [
    16
   ],
   "name": "thigh_r",
   "rotation": [
    0.9999752640724182,
    0.004455042537301779,
    0.004588702693581581,
    0.002931447234004736
   ],
   "scale": [
    1,
    0.9999997615814209,
    1
   ],
   "translation": [
    -0.09775999933481216,
    -0.05637544393539429,
    -0.0016659421380609274
   ]
  },
  {
   "children": [
    11,
    14,
    17
   ],
   "name": "pelvis",
   "rotation": [
    -0.014770584180951118,
    0,
    0,
    0.999890923500061
   ],
   "scale": [
    1,
    0.9999999403953552,
    0.9999999403953552
   ],
   "translation": [
    0,
    0.996399998664856,
    0
   ]
  },
  {
   "children": [
    18
   ],
   "name": "root"
  },
  {
   "mesh": 0,
   "name": "beard_full_male",
   "skin": 0
  },
  {
   "children": [
    20,
    19
   ],
   "name": "beard_full_male_rig"
  }
 ],
 "materials": [
  {
   "name": "beard_full_male_baked",
   "normalTexture": {
    "index": 0
   },
   "pbrMetallicRoughness": {
    "baseColorTexture": {
     "index": 1
    },
    "metallicRoughnessTexture": {
     "index": 2
    }
   }
  }
 ],
 "meshes": [
  {
   "extras": {
    "targetNames": [
     "face_stern",
     "face_gaunt",
     "face_broad",
     "face_sharp",
     "face_weathered"
    ]
   },
   "name": "beard_full_male",
   "primitives": [
    {
     "attributes": {
      "POSITION": 0,
      "NORMAL": 1,
      "TEXCOORD_0": 2,
      "JOINTS_0": 3,
      "WEIGHTS_0": 4
     },
     "indices": 5,
     "material": 0,
     "targets": [
      {
       "POSITION": 6,
       "NORMAL": 7
      },
      {
       "POSITION": 8,
       "NORMAL": 9
      },
      {
       "POSITION": 10,
       "NORMAL": 11
      },
      {
       "POSITION": 12,
       "NORMAL": 13
      },
      {
       "POSITION": 14,
       "NORMAL": 15
      }
     ]
    }
   ],
   "weights": [
    0,
    0,
    0,
    0,
    0
   ]
  }
 ],
 "textures": [
  {
   "sampler": 0,
   "source": 0
  },
  {
   "sampler": 0,
   "source": 1
  },
  {
   "sampler": 0,
   "source": 2
  }
 ],
 "images": [
  {
   "mimeType": "image/jpeg",
   "name": "beard_full_male_normal",
   "uri": "beard_full_male_normal.jpg"
  },
  {
   "mimeType": "image/jpeg",
   "name": "beard_full_male_albedo",
   "uri": "beard_full_male_albedo.jpg"
  },
  {
   "mimeType": "image/jpeg",
   "name": "beard_full_male_orm",
   "uri": "beard_full_male_orm.jpg"
  }
 ],
 "skins": [
  {
   "inverseBindMatrices": 16,
   "joints": [
    19,
    18,
    11,
    10,
    1,
    0,
    5,
    4,
    3,
    2,
    9,
    8,
    7,
    6,
    14,
    13,
    12,
    17,
    16,
    15
   ],
   "name": "beard_full_male_rig"
  }
 ],
 "accessors": [
  {
   "bufferView": 0,
   "componentType": 5126,
   "count": 4006,
   "max": [
    0.09326385706663132,
    1.7285888195037842,
    0.11646705865859985
   ],
   "min": [
    -0.09378670156002045,
    1.596207618713379,
    0.0019620584789663553
   ],
   "type": "VEC3"
  },
  {
   "bufferView": 1,
   "componentType": 5126,
   "count": 4006,
   "type": "VEC3"
  },
  {
   "bufferView": 2,
   "componentType": 5126,
   "count": 4006,
   "type": "VEC2"
  },
  {
   "bufferView": 3,
   "componentType": 5121,
   "count": 4006,
   "type": "VEC4"
  },
  {
   "bufferView": 4,
   "componentType": 5126,
   "count": 4006,
   "type": "VEC4"
  },
  {
   "bufferView": 5,
   "componentType": 5123,
   "count": 15000,
   "type": "SCALAR"
  },
  {
   "bufferView": 6,
   "componentType": 5126,
   "count": 4006,
   "max": [
    0.006990201771259308,
    0.0017358064651489258,
    0.0033966749906539917
   ],
   "min": [
    -0.006861463189125061,
    -0.0027905702590942383,
    -0.004397273063659668
   ],
   "type": "VEC3"
  },
  {
   "bufferView": 7,
   "componentType": 5126,
   "count": 4006,
   "type": "VEC3"
  },
  {
   "bufferView": 8,
   "componentType": 5126,
   "count": 4006,
   "max": [
    0.01860940456390381,
    0.016355395317077637,
    0.009005576372146606
   ],
   "min": [
    -0.018145795911550522,
    -0.004403471946716309,
    -0.014187946915626526
   ],
   "type": "VEC3"
  },
  {
   "bufferView": 9,
   "componentType": 5126,
   "count": 4006,
   "type": "VEC3"
  },
  {
   "bufferView": 10,
   "componentType": 5126,
   "count": 4006,
   "max": [
    0.010682158172130585,
    0.0032633543014526367,
    0.005676446482539177
   ],
   "min": [
    -0.010543011128902435,
    -0.0051233768463134766,
    -0.002893596887588501
   ],
   "type": "VEC3"
  },
  {
   "bufferView": 11,
   "componentType": 5126,
   "count": 4006,
   "type": "VEC3"
  },
  {
   "bufferView": 12,
   "componentType": 5126,
   "count": 4006,
   "max": [
    0.004031352698802948,
    0.002015352249145508,
    0.0022498667240142822
   ],
   "min": [
    -0.0041042715311050415,
    -0.002186298370361328,
    -0.0016104932874441147
   ],
   "type": "VEC3"
  },
  {
   "bufferView": 13,
   "componentType": 5126,
   "count": 4006,
   "type": "VEC3"
  },
  {
   "componentType": 5126,
   "count": 4006,
   "max": [
    0.01813162863254547,
    0.01418149471282959,
    0.007627278566360474
   ],
   "min": [
    -0.018007025122642517,
    -0.005432009696960449,
    -0.014200598001480103
   ],
   "sparse": {
    "count": 3178,
    "indices": {
     "bufferView": 14,
     "componentType": 5123
    },
    "values": {
     "bufferView": 15
    }
   },
   "type": "VEC3"
  },
  {
   "bufferView": 16,
   "componentType": 5126,
   "count": 4006,
   "type": "VEC3"
  },
  {
   "bufferView": 17,
   "componentType": 5126,
   "count": 20,
   "type": "MAT4"
  }
 ],
 "bufferViews": [
  {
   "buffer": 0,
   "byteLength": 48072,
   "byteOffset": 0,
   "target": 34962
  },
  {
   "buffer": 0,
   "byteLength": 48072,
   "byteOffset": 48072,
   "target": 34962
  },
  {
   "buffer": 0,
   "byteLength": 32048,
   "byteOffset": 96144,
   "target": 34962
  },
  {
   "buffer": 0,
   "byteLength": 16024,
   "byteOffset": 128192,
   "target": 34962
  },
  {
   "buffer": 0,
   "byteLength": 64096,
   "byteOffset": 144216,
   "target": 34962
  },
  {
   "buffer": 0,
   "byteLength": 30000,
   "byteOffset": 208312,
   "target": 34963
  },
  {
   "buffer": 0,
   "byteLength": 48072,
   "byteOffset": 238312,
   "target": 34962
  },
  {
   "buffer": 0,
   "byteLength": 48072,
   "byteOffset": 286384,
   "target": 34962
  },
  {
   "buffer": 0,
   "byteLength": 48072,
   "byteOffset": 334456,
   "target": 34962
  },
  {
   "buffer": 0,
   "byteLength": 48072,
   "byteOffset": 382528,
   "target": 34962
  },
  {
   "buffer": 0,
   "byteLength": 48072,
   "byteOffset": 430600,
   "target": 34962
  },
  {
   "buffer": 0,
   "byteLength": 48072,
   "byteOffset": 478672,
   "target": 34962
  },
  {
   "buffer": 0,
   "byteLength": 48072,
   "byteOffset": 526744,
   "target": 34962
  },
  {
   "buffer": 0,
   "byteLength": 48072,
   "byteOffset": 574816,
   "target": 34962
  },
  {
   "buffer": 0,
   "byteLength": 6356,
   "byteOffset": 622888
  },
  {
   "buffer": 0,
   "byteLength": 38136,
   "byteOffset": 629244
  },
  {
   "buffer": 0,
   "byteLength": 48072,
   "byteOffset": 667380,
   "target": 34962
  },
  {
   "buffer": 0,
   "byteLength": 1280,
   "byteOffset": 715452
  }
 ],
 "samplers": [
  {
   "magFilter": 9729,
   "minFilter": 9987
  }
 ],
 "buffers": [
  {
   "byteLength": 716732,
   "uri": "beard_full_male.bin"
  }
 ]
}