{
 "asset": {
  "generator": "Khronos glTF Blender I/O v4.5.49",
  "version": "2.0"
 },
 "scene": 0,
 "scenes": [
  {
   "name": "Scene",
   "nodes": [
    21
   ]
  }
 ],
 "nodes": [
  {
   "name": "head",
   "rotation": [
    -0.07702764123678207,
    0,
    0,
    0.9970289468765259
   ],
   "scale": [
    1,
    0.9999999403953552,
    0.9999999403953552
   ],
   "translation": [
    0,
    0.05727958679199219,
    6.51925802230835e-09
   ]
  },
  {
   "children": [
    0
   ],
   "name": "neck",
   "rotation": [
    0.08762817084789276,
    0,
    0,
    0.9961532354354858
   ],
   "translation": [
    0,
    0.2350001335144043,
    0
   ]
  },
  {
   "name": "hand_l",
   "rotation": [
    0.02624208852648735,
    -3.3576423419390267e-08,
    0.022019799798727036,
    0.9994130730628967
   ],
   "scale": [
    0.9999999403953552,
    0.9999999403953552,
    1
   ],
   "translation": [
    1.364387571811676e-07,
    0.2920854985713959,
    -4.423782229423523e-08
   ]
  },
  {
   "children": [
    2
   ],
   "name": "forearm_l",
   "rotation": [
    -0.05014901980757713,
    -1.2319885911438178e-07,
    -0.042079996317625046,
    0.9978548884391785
   ],
   "scale": [
    0.9999999403953552,
    0.9999998807907104,
    0.9999999403953552
   ],
   "translation": [
    1.210719347000122e-07,
    0.32022520899772644,
    1.4528632164001465e-07
   ]
  },
  {
   "children": [
    3
   ],
   "name": "upperarm_l",
   "rotation": [
    -0.3238022029399872,
    -0.3408990502357483,
    0.20202836394309998,
    0.8591417074203491
   ],
   "scale": [
    0.9999999403953552,
    1,
    0.9999998807907104
   ],
   "translation": [
    -2.0372681319713593e-08,
    0.20586024224758148,
    -5.6694261729717255e-08
   ]
  },
  {
   "children": [
    4
   ],
   "name": "clavicle_l",
   "rotation": [
    -0.5456618070602417,
    -0.49791061878204346,
    -0.49791067838668823,
    0.4543382227420807
   ],
   "scale": [
    0.9999999403953552,
    0.9999998807907104,
    1
   ],
   "translation": [
    0,
    0.1729600429534912,
    -0.009999999776482582
   ]
  },
  {
   "name": "hand_r",
   "rotation": [
    0.02624208852648735,
    3.3576423419390267e-08,
    -0.022019799798727036,
    0.9994130730628967
   ],
   "scale": [
    0.9999999403953552,
    0.9999999403953552,
    1
   ],
   "translation": [
    -1.364387571811676e-07,
    0.2920854985713959,
    -4.423782229423523e-08
   ]
  },
  {
   "children": [
    6
   ],
   "name": "forearm_r",
   "rotation": [
    -0.05014901980757713,
    1.2319885911438178e-07,
    0.042079996317625046,
    0.9978548884391785
   ],
   "scale": [
    0.9999999403953552,
    0.9999998807907104,
    0.9999999403953552
   ],
   "translation": [
    -1.210719347000122e-07,
    0.32022520899772644,
    1.4528632164001465e-07
   ]
  },
  {
   "children": [
    7
   ],
   "name": "upperarm_r",
   "rotation": [
    -0.3238022029399872,
    0.3408990502357483,
    -0.20202836394309998,
    0.8591417074203491
   ],
   "scale": [
    0.9999999403953552,
    1,
    0.9999998807907104
   ],
   "translation": [
    2.0372681319713593e-08,
    0.20586024224758148,
    -5.6694261729717255e-08
   ]
  },
  {
   "children": [
    8
   ],
   "name": "clavicle_r",
   "rotation": [
    -0.5456618070602417,
    0.49791061878204346,
    0.49791067838668823,
    0.4543382227420807
   ],
   "scale": [
    0.9999999403953552,
    0.9999998807907104,
    1
   ],
   "translation": [
    0,
    0.1729600429534912,
    -0.009999999776482582
   ]
  },
  {
   "children": [
    1,
    5,
    9
   ],
   "name": "chest",
   "rotation": [
    -0.01329434011131525,
    0,
    0,
    0.9999116659164429
   ],
   "translation": [
    0,
    0.18806660175323486,
    4.654966967443386e-10
   ]
  },
  {
   "children": [
    10
   ],
   "name": "spine",
   "rotation": [
    0.028062166646122932,
    0,
    0,
    0.999606192111969
   ],
   "translation": [
    0,
    0.16927383840084076,
    1.3969838619232178e-09
   ]
  },
  {
   "name": "foot_l",
   "rotation": [
    -0.634364664554596,
    0.12799480557441711,
    -0.14112980663776398,
    0.7491869926452637
   ],
   "scale": [
    1.0000001192092896,
    1,
    0.9999999403953552
   ],
   "translation": [
    3.077730070799589e-09,
    0.43313854932785034,
    -5.820766091346741e-11
   ]
  },
  {
   "children": [
    12
   ],
   "name": "calf_l",
   "rotation": [
    0.04657802730798721,
    0.00868407916277647,
    -0.008795889094471931,
    0.9988381862640381
   ],
   "scale": [
    0.9999999403953552,
    1,
    1.0000001192092896
   ],
   "translation": [
    -1.7680577002465725e-08,
    0.42328256368637085,
    1.1641532182693481e-10
   ]
  },
  {
   "children": [
    13
   ],
   "name": "thigh_l",
   "rotation": [
    0.9999752640724182,
    -0.004455042537301779,
    -0.004588702693581581,
    0.002931447234004736
   ],
   "scale": [
    1,
    0.9999997615814209,
    1
   ],
   "translation": [
    0.09775999933481216,
    -0.05637544393539429,
    -0.0016659421380609274
   ]
  },
  {
   "name": "foot_r",
   "rotation": [
    -0.634364664554596,
    -0.12799480557441711,
    0.14112980663776398,
    0.7491869926452637
   ],
   "scale": [
    1.0000001192092896,
    1,
    0.9999999403953552
   ],
   "translation": [
    -3.077730070799589e-09,
    0.43313854932785034,
    -5.820766091346741e-11
   ]
  },
  {
   "children": [
    15
   ],
   "name": "calf_r",
   "rotation": [
    0.04657802730798721,
    -0.00868407916277647,
    0.008795889094471931,
    0.9988381862640381
   ],
   "scale": [
    0.9999999403953552,
    1,
    1.0000001192092896
   ],
   "translation": [
    1.7680577002465725e-08,
    0.42328256368637085,
    1.1641532182693481e-10
   ]
  },
  {
   "children": [
    16
   ],
   "name": "thigh_r",
   "rotation": [
    0.9999752640724182,
    0.004455042537301779,
    0.004588702693581581,
    0.002931447234004736
   ],
   "scale": [
    1,
    0.9999997615814209,
    1
   ],
   "translation": [
    -0.09775999933481216,
    -0.05637544393539429,
    -0.0016659421380609274
   ]
  },
  {
   "children": [
    11,
    14,
    17
   ],
   "name": "pelvis",
   "rotation": [
    -0.014770584180951118,
    0,
    0,
    0.999890923500061
   ],
   "scale": [
    1,
    0.9999999403953552,
    0.9999999403953552
   ],
   "translation": [
    0,
    0.996399998664856,
    0
   ]
  },
  {
   "children": [
    18
   ],
   "name": "root"
  },
  {
   "mesh": 0,
   "name": "beard_goatee_male",
   "skin": 0
  },
  {
   "children": [
    20,
    19
   ],
   "name": "beard_goatee_male_rig"
  }
 ],
 "materials": [
  {
   "name": "beard_goatee_male_baked",
   "normalTexture": {
    "index": 0
   },
   "pbrMetallicRoughness": {
    "baseColorTexture": {
     "index": 1
    },
    "metallicRoughnessTexture": {
     "index": 2
    }
   }
  }
 ],
 "meshes": [
  {
   "extras": {
    "targetNames": [
     "face_stern",
     "face_gaunt",
     "face_broad",
     "face_sharp",
     "face_weathered"
    ]
   },
   "name": "beard_goatee_male",
   "primitives": [
    {
     "attributes": {
      "POSITION": 0,
      "NORMAL": 1,
      "TEXCOORD_0": 2,
      "JOINTS_0": 3,
      "WEIGHTS_0": 4
     },
     "indices": 5,
     "material": 0,
     "targets": [
      {
       "POSITION": 6,
       "NORMAL": 7
      },
      {
       "POSITION": 8,
       "NORMAL": 9
      },
      {
       "POSITION": 10,
       "NORMAL": 11
      },
      {
       "POSITION": 12,
       "NORMAL": 13
      },
      {
       "POSITION": 14,
       "NORMAL": 15
      }
     ]
    }
   ],
   "weights": [
    0,
    0,
    0,
    0,
    0
   ]
  }
 ],
 "textures": [
  {
   "sampler": 0,
   "source": 0
  },
  {
   "sampler": 0,
   "source": 1
  },
  {
   "sampler": 0,
   "source": 2
  }
 ],
 "images": [
  {
   "mimeType": "image/jpeg",
   "name": "beard_goatee_male_normal",
   "uri": "beard_goatee_male_normal.jpg"
  },
  {
   "mimeType": "image/jpeg",
   "name": "beard_goatee_male_albedo",
   "uri": "beard_goatee_male_albedo.jpg"
  },
  {
   "mimeType": "image/jpeg",
   "name": "beard_goatee_male_orm",
   "uri": "beard_goatee_male_orm.jpg"
  }
 ],
 "skins": [
  {
   "inverseBindMatrices": 16,
   "joints": [
    19,
    18,
    11,
    10,
    1,
    0,
    5,
    4,
    3,
    2,
    9,
    8,
    7,
    6,
    14,
    13,
    12,
    17,
    16,
    15
   ],
   "name": "beard_goatee_male_rig"
  }
 ],
 "accessors": [
  {
   "bufferView": 0,
   "componentType": 5126,
   "count": 982,
   "max": [
    0.036832354962825775,
    1.7012263536453247,
    0.1174224391579628
   ],
   "min": [
    -0.036412596702575684,
    1.5804624557495117,
    0.059933945536613464
   ],
   "type": "VEC3"
  },
  {
   "bufferView": 1,
   "componentType": 5126,
   "count": 982,
   "type": "VEC3"
  },
  {
   "bufferView": 2,
   "componentType": 5126,
   "count": 982,
   "type": "VEC2"
  },
  {
   "bufferView": 3,
   "componentType": 5121,
   "count": 982,
   "type": "VEC4"
  },
  {
   "bufferView": 4,
   "componentType": 5126,
   "count": 982,
   "type": "VEC4"
  },
  {
   "bufferView": 5,
   "componentType": 5123,
   "count": 3000,
   "type": "SCALAR"
  },
  {
   "bufferView": 6,
   "componentType": 5126,
   "count": 982,
   "max": [
    0.0007204604335129261,
    0.0029342174530029297,
    0.00125797837972641
   ],
   "min": [
    -0.000829353928565979,
    -0.0014448165893554688,
    -0.003138497471809387
   ],
   "type": "VEC3"
  },
  {
   "bufferView": 7,
   "componentType": 5126,
   "count": 982,
   "type": "VEC3"
  },
  {
   "componentType": 5126,
   "count": 982,
   "max": [
    0.0007932782173156738,
    0.0018961429595947266,
    0.0005115792155265808
   ],
   "min": [
    -0.0006417986005544662,
    -0.0014150142669677734,
    -0.0031876862049102783
   ],
   "sparse": {
    "count": 679,
    "indices": {
     "bufferView": 8,
     "componentType": 5123
    },
    "values": {
     "bufferView": 9
    }
   },
   "type": "VEC3"
  },
  {
   "componentType": 5126,
   "count": 982,
   "sparse": {
    "count": 793,
    "indices": {
     "bufferView": 10,
     "componentType": 5123
    },
    "values": {
     "bufferView": 11
    }
   },
   "type": "VEC3"
  },
  {
   "componentType": 5126,
   "count": 982,
   "max": [
    0.0016513094305992126,
    0.0020351409912109375,
    0.002552025020122528
   ],
   "min": [
    -0.0013157892972230911,
    -0.0026994943618774414,
    -0.0012108087539672852
   ],
   "sparse": {
    "count": 667,
    "indices": {
     "bufferView": 12,
     "componentType": 5123
    },
    "values": {
     "bufferView": 13
    }
   },
   "type": "VEC3"
  },
  {
   "componentType": 5126,
   "count": 982,
   "sparse": {
    "count": 789,
    "indices": {
     "bufferView": 14,
     "componentType": 5123
    },
    "values": {
     "bufferView": 15
    }
   },
   "type": "VEC3"
  },
  {
   "bufferView": 16,
   "componentType": 5126,
   "count": 982,
   "max": [
    0.0010854648426175117,
    0.0033429861068725586,
    0.0021413415670394897
   ],
   "min": [
    -0.0012461170554161072,
    -0.001833796501159668,
    -0.0013955757021903992
   ],
   "type": "VEC3"
  },
  {
   "bufferView": 17,
   "componentType": 5126,
   "count": 982,
   "type": "VEC3"
  },
  {
   "componentType": 5126,
   "count": 982,
   "max": [
    0.001084690447896719,
    0.0025674104690551758,
    0.0012674778699874878
   ],
   "min": [
    -0.0009672818705439568,
    -0.002935171127319336,
    -0.0016560852527618408
   ],
   "sparse": {
    "count": 737,
    "indices": {
     "bufferView": 18,
     "componentType": 5123
    },
    "values": {
     "bufferView": 19
    }
   },
   "type": "VEC3"
  },
  {
   "bufferView": 20,
   "componentType": 5126,
   "count": 982,
   "type": "VEC3"
  },
  {
   "bufferView": 21,
   "componentType": 5126,
   "count": 20,
   "type": "MAT4"
  }
 ],
 "bufferViews": [
  {
   "buffer": 0,
   "byteLength": 11784,
   "byteOffset": 0,
   "target": 34962
  },
  {
   "buffer": 0,
   "byteLength": 11784,
   "byteOffset": 11784,
   "target": 34962
  },
  {
   "buffer": 0,
   "byteLength": 7856,
   "byteOffset": 23568,
   "target": 34962
  },
  {
   "buffer": 0,
   "byteLength": 3928,
   "byteOffset": 31424,
   "target": 34962
  },
  {
   "buffer": 0,
   "byteLength": 15712,
   "byteOffset": 35352,
   "target": 34962
  },
  {
   "buffer": 0,
   "byteLength": 6000,
   "byteOffset": 51064,
   "target": 34963
  },
  {
   "buffer": 0,
   "byteLength": 11784,
   "byteOffset": 57064,
   "target": 34962
  },
  {
   "buffer": 0,
   "byteLength": 11784,
   "byteOffset": 68848,
   "target": 34962
  },
  {
   "buffer": 0,
   "byteLength": 1358,
   "byteOffset": 80632
  },
  {
   "buffer": 0,
   "byteLength": 8148,
   "byteOffset": 81992
  },
  {
   "buffer": 0,
   "byteLength": 1586,
   "byteOffset": 90140
  },
  {
   "buffer": 0,
   "byteLength": 9516,
   "byteOffset": 91728
  },
  {
   "buffer": 0,
   "byteLength": 1334,
   "byteOffset": 101244
  },
  {
   "buffer": 0,
   "byteLength": 8004,
   "byteOffset": 102580
  },
  {
   "buffer": 0,
   "byteLength": 1578,
   "byteOffset": 110584
  },
  {
   "buffer": 0,
   "byteLength": 9468,
   "byteOffset": 112164
  },
  {
   "buffer": 0,
   "byteLength": 11784,
   "byteOffset": 121632,
   "target": 34962
  },
  {
   "buffer": 0,
   "byteLength": 11784,
   "byteOffset": 133416,
   "target": 34962
  },
  {
   "buffer": 0,
   "byteLength": 1474,
   "byteOffset": 145200
  },
  {
   "buffer": 0,
   "byteLength": 8844,
   "byteOffset": 146676
  },
  {
   "buffer": 0,
   "byteLength": 11784,
   "byteOffset": 155520,
   "target": 34962
  },
  {
   "buffer": 0,
   "byteLength": 1280,
   "byteOffset": 167304
  }
 ],
 "samplers": [
  {
   "magFilter": 9729,
   "minFilter": 9987
  }
 ],
 "buffers": [
  {
   "byteLength": 168584,
   "uri": "beard_goatee_male.bin"
  }
 ]
}