{
 "asset": {
  "generator": "Khronos glTF Blender I/O v4.5.49",
  "version": "2.0"
 },
 "scene": 0,
 "scenes": [
  {
   "name": "Scene",
   "nodes": [
    21
   ]
  }
 ],
 "nodes": [
  {
   "name": "head",
   "rotation": [
    -0.08213425427675247,
    0,
    0,
    0.9966212511062622
   ],
   "scale": [
    1,
    0.9999999403953552,
    1
   ],
   "translation": [
    0,
    0.05373859778046608,
    1.4901161193847656e-08
   ]
  },
  {
   "children": [
    0
   ],
   "name": "neck",
   "rotation": [
    0.09345201402902603,
    0,
    0,
    0.995623767375946
   ],
   "scale": [
    1,
    0.9999999403953552,
    1
   ],
   "translation": [
    0,
    0.2200000286102295,
    0
   ]
  },
  {
   "name": "hand_l",
   "rotation": [
    0.02802448533475399,
    1.1928914034342597e-07,
    0.023515213280916214,
    0.9993306398391724
   ],
   "translation": [
    -4.6566128730773926e-09,
    0.2735321521759033,
    -4.190951585769653e-08
   ]
  },
  {
   "children": [
    2
   ],
   "name": "forearm_l",
   "rotation": [
    -0.053552042692899704,
    -8.215738489525393e-08,
    -0.04493548721075058,
    0.9975535273551941
   ],
   "scale": [
    0.9999999403953552,
    1,
    0.9999998807907104
   ],
   "translation": [
    -1.4901161193847656e-08,
    0.2998676896095276,
    -4.470348358154297e-08
   ]
  },
  {
   "children": [
    3
   ],
   "name": "upperarm_l",
   "rotation": [
    -0.3197757303714752,
    -0.33805763721466064,
    0.20346291363239288,
    0.8614310026168823
   ],
   "scale": [
    1,
    0.9999999403953552,
    1
   ],
   "translation": [
    -1.525040715932846e-08,
    0.18085838854312897,
    1.1059455573558807e-08
   ]
  },
  {
   "children": [
    4
   ],
   "name": "clavicle_l",
   "rotation": [
    -0.5486566424369812,
    -0.4976269006729126,
    -0.4976269006729126,
    0.4513433575630188
   ],
   "translation": [
    0,
    0.1619199514389038,
    -0.009999999776482582
   ]
  },
  {
   "name": "hand_r",
   "rotation": [
    0.02802448533475399,
    -1.1928914034342597e-07,
    -0.023515213280916214,
    0.9993306398391724
   ],
   "translation": [
    4.6566128730773926e-09,
    0.2735321521759033,
    -4.190951585769653e-08
   ]
  },
  {
   "children": [
    6
   ],
   "name": "forearm_r",
   "rotation": [
    -0.053552042692899704,
    8.215738489525393e-08,
    0.04493548721075058,
    0.9975535273551941
   ],
   "scale": [
    0.9999999403953552,
    1,
    0.9999998807907104
   ],
   "translation": [
    1.4901161193847656e-08,
    0.2998676896095276,
    -4.470348358154297e-08
   ]
  },
  {
   "children": [
    7
   ],
   "name": "upperarm_r",
   "rotation": [
    -0.3197757303714752,
    0.33805763721466064,
    -0.20346291363239288,
    0.8614310026168823
   ],
   "scale": [
    1,
    0.9999999403953552,
    1
   ],
   "translation": [
    1.525040715932846e-08,
    0.18085838854312897,
    1.1059455573558807e-08
   ]
  },
  {
   "children": [
    8
   ],
   "name": "clavicle_r",
   "rotation": [
    -0.5486566424369812,
    0.4976269006729126,
    0.4976269006729126,
    0.4513433575630188
   ],
   "translation": [
    0,
    0.1619199514389038,
    -0.009999999776482582
   ]
  },
  {
   "children": [
    1,
    5,
    9
   ],
   "name": "chest",
   "rotation": [
    -0.014200247824192047,
    0,
    0,
    0.9998992085456848
   ],
   "scale": [
    1,
    1,
    0.9999999403953552
   ],
   "translation": [
    0,
    0.17607104778289795,
    9.309469306550966e-10
   ]
  },
  {
   "children": [
    10
   ],
   "name": "spine",
   "rotation": [
    0.029973825439810753,
    0,
    0,
    0.9995507001876831
   ],
   "translation": [
    0,
    0.15847894549369812,
    1.862645149230957e-09
   ]
  },
  {
   "name": "foot_l",
   "rotation": [
    -0.6360833048820496,
    0.1277327686548233,
    -0.1414007693529129,
    0.7477220296859741
   ],
   "scale": [
    0.9999999403953552,
    1,
    0.9999998211860657
   ],
   "translation": [
    7.057678885757923e-09,
    0.4055864214897156,
    -1.8044374883174896e-09
   ]
  },
  {
   "children": [
    12
   ],
   "name": "calf_l",
   "rotation": [
    0.04899526759982109,
    0.03056136518716812,
    -0.03208209574222565,
    0.997815728187561
   ],
   "scale": [
    1,
    0.9999998807907104,
    1
   ],
   "translation": [
    1.7462298274040222e-10,
    0.3968465030193329,
    5.122274160385132e-09
   ]
  },
  {
   "children": [
    13
   ],
   "name": "thigh_l",
   "rotation": [
    0.9992609024047852,
    -0.02669607847929001,
    -0.027551893144845963,
    0.0024145168717950583
   ],
   "scale": [
    1.0000020265579224,
    1.0000003576278687,
    1
   ],
   "translation": [
    0.10208000242710114,
    -0.05277371406555176,
    -0.0016658357344567776
   ]
  },
  {
   "name": "foot_r",
   "rotation": [
    -0.6360833048820496,
    -0.1277327686548233,
    0.1414007693529129,
    0.7477220296859741
   ],
   "scale": [
    0.9999999403953552,
    1,
    0.9999998211860657
   ],
   "translation": [
    -7.057678885757923e-09,
    0.4055864214897156,
    -1.8044374883174896e-09
   ]
  },
  {
   "children": [
    15
   ],
   "name": "calf_r",
   "rotation": [
    0.04899526759982109,
    -0.03056136518716812,
    0.03208209574222565,
    0.997815728187561
   ],
   "scale": [
    1,
    0.9999998807907104,
    1
   ],
   "translation": [
    -1.7462298274040222e-10,
    0.3968465030193329,
    5.122274160385132e-09
   ]
  },
  {
   "children": [
    16
   ],
   "name": "thigh_r",
   "rotation": [
    0.9992609024047852,
    0.02669607847929001,
    0.027551893144845963,
    0.0024145168717950583
   ],
   "scale": [
    1.0000020265579224,
    1.0000003576278687,
    1
   ],
   "translation": [
    -0.10208000242710114,
    -0.05277371406555176,
    -0.0016658357344567776
   ]
  },
  {
   "children": [
    11,
    14,
    17
   ],
   "name": "pelvis",
   "rotation": [
    -0.01577693223953247,
    0,
    0,
    0.999875545501709
   ],
   "scale": [
    1,
    0.9999999403953552,
    1
   ],
   "translation": [
    0,
    0.9327999949455261,
    0
   ]
  },
  {
   "children": [
    18
   ],
   "name": "root"
  },
  {
   "mesh": 0,
   "name": "body_female",
   "skin": 0
  },
  {
   "children": [
    20,
    19
   ],
   "name": "body_female_rig"
  }
 ],
 "materials": [
  {
   "name": "body_female_baked",
   "normalTexture": {
    "index": 0
   },
   "pbrMetallicRoughness": {
    "baseColorTexture": {
     "index": 1
    },
    "metallicRoughnessTexture": {
     "index": 2
    }
   }
  }
 ],
 "meshes": [
  {
   "extras": {
    "targetNames": [
     "face_stern",
     "face_gaunt",
     "face_broad",
     "face_sharp",
     "face_weathered"
    ]
   },
   "name": "body_female_high.004",
   "primitives": [
    {
     "attributes": {
      "POSITION": 0,
      "NORMAL": 1,
      "TEXCOORD_0": 2,
      "JOINTS_0": 3,
      "WEIGHTS_0": 4
     },
     "indices": 5,
     "material": 0,
     "targets": [
      {
       "POSITION": 6,
       "NORMAL": 7
      },
      {
       "POSITION": 8,
       "NORMAL": 9
      },
      {
       "POSITION": 10,
       "NORMAL": 11
      },
      {
       "POSITION": 12,
       "NORMAL": 13
      },
      {
       "POSITION": 14,
       "NORMAL": 15
      }
     ]
    }
   ],
   "weights": [
    0,
    0,
    0,
    0,
    0
   ]
  }
 ],
 "textures": [
  {
   "sampler": 0,
   "source": 0
  },
  {
   "sampler": 0,
   "source": 1
  },
  {
   "sampler": 0,
   "source": 2
  }
 ],
 "images": [
  {
   "mimeType": "image/jpeg",
   "name": "body_female_normal",
   "uri": "body_female_normal.jpg"
  },
  {
   "mimeType": "image/jpeg",
   "name": "body_female_albedo",
   "uri": "body_female_albedo.jpg"
  },
  {
   "mimeType": "image/jpeg",
   "name": "body_female_orm",
   "uri": "body_female_orm.jpg"
  }
 ],
 "skins": [
  {
   "inverseBindMatrices": 16,
   "joints": [
    19,
    18,
    11,
    10,
    1,
    0,
    5,
    4,
    3,
    2,
    9,
    8,
    7,
    6,
    14,
    13,
    12,
    17,
    16,
    15
   ],
   "name": "body_female_rig"
  }
 ],
 "accessors": [
  {
   "bufferView": 0,
   "componentType": 5126,
   "count": 18458,
   "max": [
    0.6342366337776184,
    1.741007685661316,
    0.23113316297531128
   ],
   "min": [
    -0.6330817937850952,
    0.0005759806954301894,
    -0.14369885623455048
   ],
   "type": "VEC3"
  },
  {
   "bufferView": 1,
   "componentType": 5126,
   "count": 18458,
   "type": "VEC3"
  },
  {
   "bufferView": 2,
   "componentType": 5126,
   "count": 18458,
   "type": "VEC2"
  },
  {
   "bufferView": 3,
   "componentType": 5121,
   "count": 18458,
   "type": "VEC4"
  },
  {
   "bufferView": 4,
   "componentType": 5126,
   "count": 18458,
   "type": "VEC4"
  },
  {
   "bufferView": 5,
   "componentType": 5123,
   "count": 89964,
   "type": "SCALAR"
  },
  {
   "componentType": 5126,
   "count": 18458,
   "max": [
    0.0029804669320583344,
    0.0015528202056884766,
    0.0016081109642982483
   ],
   "min": [
    -0.002970021218061447,
    -0.0021238327026367188,
    -0.0017322665080428123
   ],
   "sparse": {
    "count": 1750,
    "indices": {
     "bufferView": 6,
     "componentType": 5123
    },
    "values": {
     "bufferView": 7
    }
   },
   "type": "VEC3"
  },
  {
   "componentType": 5126,
   "count": 18458,
   "sparse": {
    "count": 5407,
    "indices": {
     "bufferView": 8,
     "componentType": 5123
    },
    "values": {
     "bufferView": 9
    }
   },
   "type": "VEC3"
  },
  {
   "componentType": 5126,
   "count": 18458,
   "max": [
    0.014639116823673248,
    0.011780500411987305,
    0.010080773383378983
   ],
   "min": [
    -0.014288045465946198,
    -0.0022732019424438477,
    -0.01241568848490715
   ],
   "sparse": {
    "count": 1713,
    "indices": {
     "bufferView": 10,
     "componentType": 5123
    },
    "values": {
     "bufferView": 11
    }
   },
   "type": "VEC3"
  },
  {
   "componentType": 5126,
   "count": 18458,
   "sparse": {
    "count": 5400,
    "indices": {
     "bufferView": 12,
     "componentType": 5123
    },
    "values": {
     "bufferView": 13
    }
   },
   "type": "VEC3"
  },
  {
   "componentType": 5126,
   "count": 18458,
   "max": [
    0.004319917410612106,
    0.0025207996368408203,
    0.003452390432357788
   ],
   "min": [
    -0.004329364746809006,
    -0.0031887292861938477,
    -0.0026974882930517197
   ],
   "sparse": {
    "count": 1660,
    "indices": {
     "bufferView": 14,
     "componentType": 5123
    },
    "values": {
     "bufferView": 15
    }
   },
   "type": "VEC3"
  },
  {
   "componentType": 5126,
   "count": 18458,
   "sparse": {
    "count": 5349,
    "indices": {
     "bufferView": 16,
     "componentType": 5123
    },
    "values": {
     "bufferView": 17
    }
   },
   "type": "VEC3"
  },
  {
   "componentType": 5126,
   "count": 18458,
   "max": [
    0.002871507778763771,
    0.0016111135482788086,
    0.0026547908782958984
   ],
   "min": [
    -0.002921309322118759,
    -0.002208232879638672,
    -0.0013113394379615784
   ],
   "sparse": {
    "count": 1602,
    "indices": {
     "bufferView": 18,
     "componentType": 5123
    },
    "values": {
     "bufferView": 19
    }
   },
   "type": "VEC3"
  },
  {
   "componentType": 5126,
   "count": 18458,
   "sparse": {
    "count": 5303,
    "indices": {
     "bufferView": 20,
     "componentType": 5123
    },
    "values": {
     "bufferView": 21
    }
   },
   "type": "VEC3"
  },
  {
   "componentType": 5126,
   "count": 18458,
   "max": [
    0.013738434761762619,
    0.011142969131469727,
    0.009232714772224426
   ],
   "min": [
    -0.014612652361392975,
    -0.003124237060546875,
    -0.011342808604240417
   ],
   "sparse": {
    "count": 1306,
    "indices": {
     "bufferView": 22,
     "componentType": 5123
    },
    "values": {
     "bufferView": 23
    }
   },
   "type": "VEC3"
  },
  {
   "componentType": 5126,
   "count": 18458,
   "sparse": {
    "count": 4980,
    "indices": {
     "bufferView": 24,
     "componentType": 5123
    },
    "values": {
     "bufferView": 25
    }
   },
   "type": "VEC3"
  },
  {
   "bufferView": 26,
   "componentType": 5126,
   "count": 20,
   "type": "MAT4"
  }
 ],
 "bufferViews": [
  {
   "buffer": 0,
   "byteLength": 221496,
   "byteOffset": 0,
   "target": 34962
  },
  {
   "buffer": 0,
   "byteLength": 221496,
   "byteOffset": 221496,
   "target": 34962
  },
  {
   "buffer": 0,
   "byteLength": 147664,
   "byteOffset": 442992,
   "target": 34962
  },
  {
   "buffer": 0,
   "byteLength": 73832,
   "byteOffset": 590656,
   "target": 34962
  },
  {
   "buffer": 0,
   "byteLength": 295328,
   "byteOffset": 664488,
   "target": 34962
  },
  {
   "buffer": 0,
   "byteLength": 179928,
   "byteOffset": 959816,
   "target": 34963
  },
  {
   "buffer": 0,
   "byteLength": 3500,
   "byteOffset": 1139744
  },
  {
   "buffer": 0,
   "byteLength": 21000,
   "byteOffset": 1143244
  },
  {
   "buffer": 0,
   "byteLength": 10814,
   "byteOffset": 1164244
  },
  {
   "buffer": 0,
   "byteLength": 64884,
   "byteOffset": 1175060
  },
  {
   "buffer": 0,
   "byteLength": 3426,
   "byteOffset": 1239944
  },
  {
   "buffer": 0,
   "byteLength": 20556,
   "byteOffset": 1243372
  },
  {
   "buffer": 0,
   "byteLength": 10800,
   "byteOffset": 1263928
  },
  {
   "buffer": 0,
   "byteLength": 64800,
   "byteOffset": 1274728
  },
  {
   "buffer": 0,
   "byteLength": 3320,
   "byteOffset": 1339528
  },
  {
   "buffer": 0,
   "byteLength": 19920,
   "byteOffset": 1342848
  },
  {
   "buffer": 0,
   "byteLength": 10698,
   "byteOffset": 1362768
  },
  {
   "buffer": 0,
   "byteLength": 64188,
   "byteOffset": 1373468
  },
  {
   "buffer": 0,
   "byteLength": 3204,
   "byteOffset": 1437656
  },
  {
   "buffer": 0,
   "byteLength": 19224,
   "byteOffset": 1440860
  },
  {
   "buffer": 0,
   "byteLength": 10606,
   "byteOffset": 1460084
  },
  {
   "buffer": 0,
   "byteLength": 63636,
   "byteOffset": 1470692
  },
  {
   "buffer": 0,
   "byteLength": 2612,
   "byteOffset": 1534328
  },
  {
   "buffer": 0,
   "byteLength": 15672,
   "byteOffset": 1536940
  },
  {
   "buffer": 0,
   "byteLength": 9960,
   "byteOffset": 1552612
  },
  {
   "buffer": 0,
   "byteLength": 59760,
   "byteOffset": 1562572
  },
  {
   "buffer": 0,
   "byteLength": 1280,
   "byteOffset": 1622332
  }
 ],
 "samplers": [
  {
   "magFilter": 9729,
   "minFilter": 9987
  }
 ],
 "buffers": [
  {
   "byteLength": 1623612,
   "uri": "body_female.bin"
  }
 ]
}