{
 "asset": {
  "generator": "Khronos glTF Blender I/O v4.5.49",
  "version": "2.0"
 },
 "extensionsUsed": [
  "KHR_materials_emissive_strength"
 ],
 "scene": 0,
 "scenes": [
  {
   "name": "Scene",
   "nodes": [
    0
   ]
  }
 ],
 "nodes": [
  {
   "mesh": 0,
   "name": "weapon_sun_glaive"
  }
 ],
 "materials": [
  {
   "emissiveFactor": [
    1,
    1,
    1
   ],
   "emissiveTexture": {
    "index": 0
   },
   "extensions": {
    "KHR_materials_emissive_strength": {
     "emissiveStrength": 1.7999999523162842
    }
   },
   "name": "weapon_sun_glaive_baked",
   "normalTexture": {
    "index": 1
   },
   "pbrMetallicRoughness": {
    "baseColorTexture": {
     "index": 2
    },
    "metallicRoughnessTexture": {
     "index": 3
    }
   }
  }
 ],
 "meshes": [
  {
   "name": "haft",
   "primitives": [
    {
     "attributes": {
      "POSITION": 0,
      "NORMAL": 1,
      "TEXCOORD_0": 2
     },
     "indices": 3,
     "material": 0
    }
   ]
  }
 ],
 "textures": [
  {
   "sampler": 0,
   "source": 0
  },
  {
   "sampler": 0,
   "source": 1
  },
  {
   "sampler": 0,
   "source": 2
  },
  {
   "sampler": 0,
   "source": 3
  }
 ],
 "images": [
  {
   "mimeType": "image/jpeg",
   "name": "weapon_sun_glaive_emit",
   "uri": "weapon_sun_glaive_emit.jpg"
  },
  {
   "mimeType": "image/jpeg",
   "name": "weapon_sun_glaive_normal",
   "uri": "weapon_sun_glaive_normal.jpg"
  },
  {
   "mimeType": "image/jpeg",
   "name": "weapon_sun_glaive_albedo",
   "uri": "weapon_sun_glaive_albedo.jpg"
  },
  {
   "mimeType": "image/jpeg",
   "name": "weapon_sun_glaive_orm",
   "uri": "weapon_sun_glaive_orm.jpg"
  }
 ],
 "accessors": [
  {
   "bufferView": 0,
   "componentType": 5126,
   "count": 11541,
   "max": [
    0.11569155752658844,
    1.049984335899353,
    0.02505100704729557
   ],
   "min": [
    -0.09990175068378448,
    -0.8520536422729492,
    -0.025037385523319244
   ],
   "type": "VEC3"
  },
  {
   "bufferView": 1,
   "componentType": 5126,
   "count": 11541,
   "type": "VEC3"
  },
  {
   "bufferView": 2,
   "componentType": 5126,
   "count": 11541,
   "type": "VEC2"
  },
  {
   "bufferView": 3,
   "componentType": 5123,
   "count": 41994,
   "type": "SCALAR"
  }
 ],
 "bufferViews": [
  {
   "buffer": 0,
   "byteLength": 138492,
   "byteOffset": 0,
   "target": 34962
  },
  {
   "buffer": 0,
   "byteLength": 138492,
   "byteOffset": 138492,
   "target": 34962
  },
  {
   "buffer": 0,
   "byteLength": 92328,
   "byteOffset": 276984,
   "target": 34962
  },
  {
   "buffer": 0,
   "byteLength": 83988,
   "byteOffset": 369312,
   "target": 34963
  }
 ],
 "samplers": [
  {
   "magFilter": 9729,
   "minFilter": 9987
  }
 ],
 "buffers": [
  {
   "byteLength": 453300,
   "uri": "weapon_sun_glaive.bin"
  }
 ]
}