{
 "asset": {
  "generator": "Khronos glTF Blender I/O v4.5.49",
  "version": "2.0"
 },
 "extensionsUsed": [
  "KHR_materials_emissive_strength"
 ],
 "scene": 0,
 "scenes": [
  {
   "name": "Scene",
   "nodes": [
    0
   ]
  }
 ],
 "nodes": [
  {
   "mesh": 0,
   "name": "weapon_frost_staff"
  }
 ],
 "materials": [
  {
   "emissiveFactor": [
    1,
    1,
    1
   ],
   "emissiveTexture": {
    "index": 0
   },
   "extensions": {
    "KHR_materials_emissive_strength": {
     "emissiveStrength": 1.600000023841858
    }
   },
   "name": "weapon_frost_staff_baked",
   "normalTexture": {
    "index": 1
   },
   "pbrMetallicRoughness": {
    "baseColorTexture": {
     "index": 2
    },
    "metallicRoughnessTexture": {
     "index": 3
    }
   }
  }
 ],
 "meshes": [
  {
   "name": "shaft",
   "primitives": [
    {
     "attributes": {
      "POSITION": 0,
      "NORMAL": 1,
      "TEXCOORD_0": 2
     },
     "indices": 3,
     "material": 0
    }
   ]
  }
 ],
 "textures": [
  {
   "sampler": 0,
   "source": 0
  },
  {
   "sampler": 0,
   "source": 1
  },
  {
   "sampler": 0,
   "source": 2
  },
  {
   "sampler": 0,
   "source": 3
  }
 ],
 "images": [
  {
   "mimeType": "image/jpeg",
   "name": "weapon_frost_staff_emit",
   "uri": "weapon_frost_staff_emit.jpg"
  },
  {
   "mimeType": "image/jpeg",
   "name": "weapon_frost_staff_normal",
   "uri": "weapon_frost_staff_normal.jpg"
  },
  {
   "mimeType": "image/jpeg",
   "name": "weapon_frost_staff_albedo",
   "uri": "weapon_frost_staff_albedo.jpg"
  },
  {
   "mimeType": "image/jpeg",
   "name": "weapon_frost_staff_orm",
   "uri": "weapon_frost_staff_orm.jpg"
  }
 ],
 "accessors": [
  {
   "bufferView": 0,
   "componentType": 5126,
   "count": 12364,
   "max": [
    0.16697317361831665,
    1.6094131469726562,
    0.1671445071697235
   ],
   "min": [
    -0.16715897619724274,
    -0.7831699252128601,
    -0.16700279712677002
   ],
   "type": "VEC3"
  },
  {
   "bufferView": 1,
   "componentType": 5126,
   "count": 12364,
   "type": "VEC3"
  },
  {
   "bufferView": 2,
   "componentType": 5126,
   "count": 12364,
   "type": "VEC2"
  },
  {
   "bufferView": 3,
   "componentType": 5123,
   "count": 41994,
   "type": "SCALAR"
  }
 ],
 "bufferViews": [
  {
   "buffer": 0,
   "byteLength": 148368,
   "byteOffset": 0,
   "target": 34962
  },
  {
   "buffer": 0,
   "byteLength": 148368,
   "byteOffset": 148368,
   "target": 34962
  },
  {
   "buffer": 0,
   "byteLength": 98912,
   "byteOffset": 296736,
   "target": 34962
  },
  {
   "buffer": 0,
   "byteLength": 83988,
   "byteOffset": 395648,
   "target": 34963
  }
 ],
 "samplers": [
  {
   "magFilter": 9729,
   "minFilter": 9987
  }
 ],
 "buffers": [
  {
   "byteLength": 479636,
   "uri": "weapon_frost_staff.bin"
  }
 ]
}