{
 "asset": {
  "generator": "Khronos glTF Blender I/O v4.5.49",
  "version": "2.0"
 },
 "scene": 0,
 "scenes": [
  {
   "name": "Scene",
   "nodes": [
    0
   ]
  }
 ],
 "nodes": [
  {
   "mesh": 0,
   "name": "weapon_warhammer"
  }
 ],
 "materials": [
  {
   "name": "weapon_warhammer_baked",
   "normalTexture": {
    "index": 0
   },
   "pbrMetallicRoughness": {
    "baseColorTexture": {
     "index": 1
    },
    "metallicRoughnessTexture": {
     "index": 2
    }
   }
  }
 ],
 "meshes": [
  {
   "name": "haft",
   "primitives": [
    {
     "attributes": {
      "POSITION": 0,
      "NORMAL": 1,
      "TEXCOORD_0": 2
     },
     "indices": 3,
     "material": 0
    }
   ]
  }
 ],
 "textures": [
  {
   "sampler": 0,
   "source": 0
  },
  {
   "sampler": 0,
   "source": 1
  },
  {
   "sampler": 0,
   "source": 2
  }
 ],
 "images": [
  {
   "mimeType": "image/jpeg",
   "name": "weapon_warhammer_normal",
   "uri": "weapon_warhammer_normal.jpg"
  },
  {
   "mimeType": "image/jpeg",
   "name": "weapon_warhammer_albedo",
   "uri": "weapon_warhammer_albedo.jpg"
  },
  {
   "mimeType": "image/jpeg",
   "name": "weapon_warhammer_orm",
   "uri": "weapon_warhammer_orm.jpg"
  }
 ],
 "accessors": [
  {
   "bufferView": 0,
   "componentType": 5126,
   "count": 11572,
   "max": [
    0.19516843557357788,
    0.8131477236747742,
    0.07202225923538208
   ],
   "min": [
    -0.29310381412506104,
    -0.19300000369548798,
    -0.07200003415346146
   ],
   "type": "VEC3"
  },
  {
   "bufferView": 1,
   "componentType": 5126,
   "count": 11572,
   "type": "VEC3"
  },
  {
   "bufferView": 2,
   "componentType": 5126,
   "count": 11572,
   "type": "VEC2"
  },
  {
   "bufferView": 3,
   "componentType": 5123,
   "count": 38988,
   "type": "SCALAR"
  }
 ],
 "bufferViews": [
  {
   "buffer": 0,
   "byteLength": 138864,
   "byteOffset": 0,
   "target": 34962
  },
  {
   "buffer": 0,
   "byteLength": 138864,
   "byteOffset": 138864,
   "target": 34962
  },
  {
   "buffer": 0,
   "byteLength": 92576,
   "byteOffset": 277728,
   "target": 34962
  },
  {
   "buffer": 0,
   "byteLength": 77976,
   "byteOffset": 370304,
   "target": 34963
  }
 ],
 "samplers": [
  {
   "magFilter": 9729,
   "minFilter": 9987
  }
 ],
 "buffers": [
  {
   "byteLength": 448280,
   "uri": "weapon_warhammer.bin"
  }
 ]
}