{
 "asset": {
  "generator": "Khronos glTF Blender I/O v4.5.49",
  "version": "2.0"
 },
 "extensionsUsed": [
  "KHR_materials_emissive_strength"
 ],
 "scene": 0,
 "scenes": [
  {
   "name": "Scene",
   "nodes": [
    0
   ]
  }
 ],
 "nodes": [
  {
   "mesh": 0,
   "name": "weapon_runeblade"
  }
 ],
 "materials": [
  {
   "emissiveFactor": [
    1,
    1,
    1
   ],
   "emissiveTexture": {
    "index": 0
   },
   "extensions": {
    "KHR_materials_emissive_strength": {
     "emissiveStrength": 1.600000023841858
    }
   },
   "name": "weapon_runeblade_baked",
   "normalTexture": {
    "index": 1
   },
   "pbrMetallicRoughness": {
    "baseColorTexture": {
     "index": 2
    },
    "metallicRoughnessTexture": {
     "index": 3
    }
   }
  }
 ],
 "meshes": [
  {
   "name": "blade",
   "primitives": [
    {
     "attributes": {
      "POSITION": 0,
      "NORMAL": 1,
      "TEXCOORD_0": 2
     },
     "indices": 3,
     "material": 0
    }
   ]
  }
 ],
 "textures": [
  {
   "sampler": 0,
   "source": 0
  },
  {
   "sampler": 0,
   "source": 1
  },
  {
   "sampler": 0,
   "source": 2
  },
  {
   "sampler": 0,
   "source": 3
  }
 ],
 "images": [
  {
   "mimeType": "image/jpeg",
   "name": "weapon_runeblade_emit",
   "uri": "weapon_runeblade_emit.jpg"
  },
  {
   "mimeType": "image/jpeg",
   "name": "weapon_runeblade_normal",
   "uri": "weapon_runeblade_normal.jpg"
  },
  {
   "mimeType": "image/jpeg",
   "name": "weapon_runeblade_albedo",
   "uri": "weapon_runeblade_albedo.jpg"
  },
  {
   "mimeType": "image/jpeg",
   "name": "weapon_runeblade_orm",
   "uri": "weapon_runeblade_orm.jpg"
  }
 ],
 "accessors": [
  {
   "bufferView": 0,
   "componentType": 5126,
   "count": 13285,
   "max": [
    0.24337530136108398,
    1.450038194656372,
    0.03934193402528763
   ],
   "min": [
    -0.2433432936668396,
    -0.30913835763931274,
    -0.03934420645236969
   ],
   "type": "VEC3"
  },
  {
   "bufferView": 1,
   "componentType": 5126,
   "count": 13285,
   "type": "VEC3"
  },
  {
   "bufferView": 2,
   "componentType": 5126,
   "count": 13285,
   "type": "VEC2"
  },
  {
   "bufferView": 3,
   "componentType": 5123,
   "count": 47988,
   "type": "SCALAR"
  }
 ],
 "bufferViews": [
  {
   "buffer": 0,
   "byteLength": 159420,
   "byteOffset": 0,
   "target": 34962
  },
  {
   "buffer": 0,
   "byteLength": 159420,
   "byteOffset": 159420,
   "target": 34962
  },
  {
   "buffer": 0,
   "byteLength": 106280,
   "byteOffset": 318840,
   "target": 34962
  },
  {
   "buffer": 0,
   "byteLength": 95976,
   "byteOffset": 425120,
   "target": 34963
  }
 ],
 "samplers": [
  {
   "magFilter": 9729,
   "minFilter": 9987
  }
 ],
 "buffers": [
  {
   "byteLength": 521096,
   "uri": "weapon_runeblade.bin"
  }
 ]
}