{
 "asset": {
  "generator": "Khronos glTF Blender I/O v4.5.49",
  "version": "2.0"
 },
 "extensionsUsed": [
  "KHR_materials_emissive_strength"
 ],
 "scene": 0,
 "scenes": [
  {
   "name": "Scene",
   "nodes": [
    0
   ]
  }
 ],
 "nodes": [
  {
   "mesh": 0,
   "name": "weapon_mace"
  }
 ],
 "materials": [
  {
   "emissiveFactor": [
    1,
    1,
    1
   ],
   "emissiveTexture": {
    "index": 0
   },
   "extensions": {
    "KHR_materials_emissive_strength": {
     "emissiveStrength": 1.7999999523162842
    }
   },
   "name": "weapon_mace_baked",
   "normalTexture": {
    "index": 1
   },
   "pbrMetallicRoughness": {
    "baseColorTexture": {
     "index": 2
    },
    "metallicRoughnessTexture": {
     "index": 3
    }
   }
  }
 ],
 "meshes": [
  {
   "name": "haft",
   "primitives": [
    {
     "attributes": {
      "POSITION": 0,
      "NORMAL": 1,
      "TEXCOORD_0": 2
     },
     "indices": 3,
     "material": 0
    }
   ]
  }
 ],
 "textures": [
  {
   "sampler": 0,
   "source": 0
  },
  {
   "sampler": 0,
   "source": 1
  },
  {
   "sampler": 0,
   "source": 2
  },
  {
   "sampler": 0,
   "source": 3
  }
 ],
 "images": [
  {
   "mimeType": "image/jpeg",
   "name": "weapon_mace_emit",
   "uri": "weapon_mace_emit.jpg"
  },
  {
   "mimeType": "image/jpeg",
   "name": "weapon_mace_normal",
   "uri": "weapon_mace_normal.jpg"
  },
  {
   "mimeType": "image/jpeg",
   "name": "weapon_mace_albedo",
   "uri": "weapon_mace_albedo.jpg"
  },
  {
   "mimeType": "image/jpeg",
   "name": "weapon_mace_orm",
   "uri": "weapon_mace_orm.jpg"
  }
 ],
 "accessors": [
  {
   "bufferView": 0,
   "componentType": 5126,
   "count": 12653,
   "max": [
    0.13693737983703613,
    0.811750054359436,
    0.13692577183246613
   ],
   "min": [
    -0.13673825562000275,
    -0.19199822843074799,
    -0.1370374858379364
   ],
   "type": "VEC3"
  },
  {
   "bufferView": 1,
   "componentType": 5126,
   "count": 12653,
   "type": "VEC3"
  },
  {
   "bufferView": 2,
   "componentType": 5126,
   "count": 12653,
   "type": "VEC2"
  },
  {
   "bufferView": 3,
   "componentType": 5123,
   "count": 35988,
   "type": "SCALAR"
  }
 ],
 "bufferViews": [
  {
   "buffer": 0,
   "byteLength": 151836,
   "byteOffset": 0,
   "target": 34962
  },
  {
   "buffer": 0,
   "byteLength": 151836,
   "byteOffset": 151836,
   "target": 34962
  },
  {
   "buffer": 0,
   "byteLength": 101224,
   "byteOffset": 303672,
   "target": 34962
  },
  {
   "buffer": 0,
   "byteLength": 71976,
   "byteOffset": 404896,
   "target": 34963
  }
 ],
 "samplers": [
  {
   "magFilter": 9729,
   "minFilter": 9987
  }
 ],
 "buffers": [
  {
   "byteLength": 476872,
   "uri": "weapon_mace.bin"
  }
 ]
}