{
 "asset": {
  "generator": "Khronos glTF Blender I/O v4.5.49",
  "version": "2.0"
 },
 "scene": 0,
 "scenes": [
  {
   "name": "Scene",
   "nodes": [
    21
   ]
  }
 ],
 "nodes": [
  {
   "name": "head",
   "rotation": [
    -0.07702764123678207,
    0,
    0,
    0.9970289468765259
   ],
   "scale": [
    1,
    0.9999999403953552,
    0.9999999403953552
   ],
   "translation": [
    0,
    0.05727958679199219,
    6.51925802230835e-09
   ]
  },
  {
   "children": [
    0
   ],
   "name": "neck",
   "rotation": [
    0.08762817084789276,
    0,
    0,
    0.9961532354354858
   ],
   "translation": [
    0,
    0.2350001335144043,
    0
   ]
  },
  {
   "name": "hand_l",
   "rotation": [
    0.02624208852648735,
    -3.3576423419390267e-08,
    0.022019799798727036,
    0.9994130730628967
   ],
   "scale": [
    0.9999999403953552,
    0.9999999403953552,
    1
   ],
   "translation": [
    1.364387571811676e-07,
    0.2920854985713959,
    -4.423782229423523e-08
   ]
  },
  {
   "children": [
    2
   ],
   "name": "forearm_l",
   "rotation": [
    -0.05014901980757713,
    -1.2319885911438178e-07,
    -0.042079996317625046,
    0.9978548884391785
   ],
   "scale": [
    0.9999999403953552,
    0.9999998807907104,
    0.9999999403953552
   ],
   "translation": [
    1.210719347000122e-07,
    0.32022520899772644,
    1.4528632164001465e-07
   ]
  },
  {
   "children": [
    3
   ],
   "name": "upperarm_l",
   "rotation": [
    -0.3238022029399872,
    -0.3408990502357483,
    0.20202836394309998,
    0.8591417074203491
   ],
   "scale": [
    0.9999999403953552,
    1,
    0.9999998807907104
   ],
   "translation": [
    -2.0372681319713593e-08,
    0.20586024224758148,
    -5.6694261729717255e-08
   ]
  },
  {
   "children": [
    4
   ],
   "name": "clavicle_l",
   "rotation": [
    -0.5456618070602417,
    -0.49791061878204346,
    -0.49791067838668823,
    0.4543382227420807
   ],
   "scale": [
    0.9999999403953552,
    0.9999998807907104,
    1
   ],
   "translation": [
    0,
    0.1729600429534912,
    -0.009999999776482582
   ]
  },
  {
   "name": "hand_r",
   "rotation": [
    0.02624208852648735,
    3.3576423419390267e-08,
    -0.022019799798727036,
    0.9994130730628967
   ],
   "scale": [
    0.9999999403953552,
    0.9999999403953552,
    1
   ],
   "translation": [
    -1.364387571811676e-07,
    0.2920854985713959,
    -4.423782229423523e-08
   ]
  },
  {
   "children": [
    6
   ],
   "name": "forearm_r",
   "rotation": [
    -0.05014901980757713,
    1.2319885911438178e-07,
    0.042079996317625046,
    0.9978548884391785
   ],
   "scale": [
    0.9999999403953552,
    0.9999998807907104,
    0.9999999403953552
   ],
   "translation": [
    -1.210719347000122e-07,
    0.32022520899772644,
    1.4528632164001465e-07
   ]
  },
  {
   "children": [
    7
   ],
   "name": "upperarm_r",
   "rotation": [
    -0.3238022029399872,
    0.3408990502357483,
    -0.20202836394309998,
    0.8591417074203491
   ],
   "scale": [
    0.9999999403953552,
    1,
    0.9999998807907104
   ],
   "translation": [
    2.0372681319713593e-08,
    0.20586024224758148,
    -5.6694261729717255e-08
   ]
  },
  {
   "children": [
    8
   ],
   "name": "clavicle_r",
   "rotation": [
    -0.5456618070602417,
    0.49791061878204346,
    0.49791067838668823,
    0.4543382227420807
   ],
   "scale": [
    0.9999999403953552,
    0.9999998807907104,
    1
   ],
   "translation": [
    0,
    0.1729600429534912,
    -0.009999999776482582
   ]
  },
  {
   "children": [
    1,
    5,
    9
   ],
   "name": "chest",
   "rotation": [
    -0.01329434011131525,
    0,
    0,
    0.9999116659164429
   ],
   "translation": [
    0,
    0.18806660175323486,
    4.654966967443386e-10
   ]
  },
  {
   "children": [
    10
   ],
   "name": "spine",
   "rotation": [
    0.028062166646122932,
    0,
    0,
    0.999606192111969
   ],
   "translation": [
    0,
    0.16927383840084076,
    1.3969838619232178e-09
   ]
  },
  {
   "name": "foot_l",
   "rotation": [
    -0.634364664554596,
    0.12799480557441711,
    -0.14112980663776398,
    0.7491869926452637
   ],
   "scale": [
    1.0000001192092896,
    1,
    0.9999999403953552
   ],
   "translation": [
    3.077730070799589e-09,
    0.43313854932785034,
    -5.820766091346741e-11
   ]
  },
  {
   "children": [
    12
   ],
   "name": "calf_l",
   "rotation": [
    0.04657802730798721,
    0.00868407916277647,
    -0.008795889094471931,
    0.9988381862640381
   ],
   "scale": [
    0.9999999403953552,
    1,
    1.0000001192092896
   ],
   "translation": [
    -1.7680577002465725e-08,
    0.42328256368637085,
    1.1641532182693481e-10
   ]
  },
  {
   "children": [
    13
   ],
   "name": "thigh_l",
   "rotation": [
    0.9999752640724182,
    -0.004455042537301779,
    -0.004588702693581581,
    0.002931447234004736
   ],
   "scale": [
    1,
    0.9999997615814209,
    1
   ],
   "translation": [
    0.09775999933481216,
    -0.05637544393539429,
    -0.0016659421380609274
   ]
  },
  {
   "name": "foot_r",
   "rotation": [
    -0.634364664554596,
    -0.12799480557441711,
    0.14112980663776398,
    0.7491869926452637
   ],
   "scale": [
    1.0000001192092896,
    1,
    0.9999999403953552
   ],
   "translation": [
    -3.077730070799589e-09,
    0.43313854932785034,
    -5.820766091346741e-11
   ]
  },
  {
   "children": [
    15
   ],
   "name": "calf_r",
   "rotation": [
    0.04657802730798721,
    -0.00868407916277647,
    0.008795889094471931,
    0.9988381862640381
   ],
   "scale": [
    0.9999999403953552,
    1,
    1.0000001192092896
   ],
   "translation": [
    1.7680577002465725e-08,
    0.42328256368637085,
    1.1641532182693481e-10
   ]
  },
  {
   "children": [
    16
   ],
   "name": "thigh_r",
   "rotation": [
    0.9999752640724182,
    0.004455042537301779,
    0.004588702693581581,
    0.002931447234004736
   ],
   "scale": [
    1,
    0.9999997615814209,
    1
   ],
   "translation": [
    -0.09775999933481216,
    -0.05637544393539429,
    -0.0016659421380609274
   ]
  },
  {
   "children": [
    11,
    14,
    17
   ],
   "name": "pelvis",
   "rotation": [
    -0.014770584180951118,
    0,
    0,
    0.999890923500061
   ],
   "scale": [
    1,
    0.9999999403953552,
    0.9999999403953552
   ],
   "translation": [
    0,
    0.996399998664856,
    0
   ]
  },
  {
   "children": [
    18
   ],
   "name": "root"
  },
  {
   "mesh": 0,
   "name": "arcanist_hoarfrost_chest_male",
   "skin": 0
  },
  {
   "children": [
    20,
    19
   ],
   "name": "arcanist_hoarfrost_chest_male_rig"
  }
 ],
 "materials": [
  {
   "name": "arcanist_hoarfrost_chest_male_baked",
   "normalTexture": {
    "index": 0
   },
   "pbrMetallicRoughness": {
    "baseColorTexture": {
     "index": 1
    },
    "metallicRoughnessTexture": {
     "index": 2
    }
   }
  }
 ],
 "meshes": [
  {
   "name": "robe",
   "primitives": [
    {
     "attributes": {
      "POSITION": 0,
      "NORMAL": 1,
      "TEXCOORD_0": 2,
      "JOINTS_0": 3,
      "WEIGHTS_0": 4
     },
     "indices": 5,
     "material": 0
    }
   ]
  }
 ],
 "textures": [
  {
   "sampler": 0,
   "source": 0
  },
  {
   "sampler": 0,
   "source": 1
  },
  {
   "sampler": 0,
   "source": 2
  }
 ],
 "images": [
  {
   "mimeType": "image/jpeg",
   "name": "arcanist_hoarfrost_chest_male_normal",
   "uri": "arcanist_hoarfrost_chest_male_normal.jpg"
  },
  {
   "mimeType": "image/jpeg",
   "name": "arcanist_hoarfrost_chest_male_albedo",
   "uri": "arcanist_hoarfrost_chest_male_albedo.jpg"
  },
  {
   "mimeType": "image/jpeg",
   "name": "arcanist_hoarfrost_chest_male_orm",
   "uri": "arcanist_hoarfrost_chest_male_orm.jpg"
  }
 ],
 "skins": [
  {
   "inverseBindMatrices": 6,
   "joints": [
    19,
    18,
    11,
    10,
    1,
    0,
    5,
    4,
    3,
    2,
    9,
    8,
    7,
    6,
    14,
    13,
    12,
    17,
    16,
    15
   ],
   "name": "arcanist_hoarfrost_chest_male_rig"
  }
 ],
 "accessors": [
  {
   "bufferView": 0,
   "componentType": 5126,
   "count": 19739,
   "max": [
    0.7168111801147461,
    1.5510295629501343,
    0.22959518432617188
   ],
   "min": [
    -0.7166855931282043,
    0.4509742259979248,
    -0.25581595301628113
   ],
   "type": "VEC3"
  },
  {
   "bufferView": 1,
   "componentType": 5126,
   "count": 19739,
   "type": "VEC3"
  },
  {
   "bufferView": 2,
   "componentType": 5126,
   "count": 19739,
   "type": "VEC2"
  },
  {
   "bufferView": 3,
   "componentType": 5121,
   "count": 19739,
   "type": "VEC4"
  },
  {
   "bufferView": 4,
   "componentType": 5126,
   "count": 19739,
   "type": "VEC4"
  },
  {
   "bufferView": 5,
   "componentType": 5123,
   "count": 71988,
   "type": "SCALAR"
  },
  {
   "bufferView": 6,
   "componentType": 5126,
   "count": 20,
   "type": "MAT4"
  }
 ],
 "bufferViews": [
  {
   "buffer": 0,
   "byteLength": 236868,
   "byteOffset": 0,
   "target": 34962
  },
  {
   "buffer": 0,
   "byteLength": 236868,
   "byteOffset": 236868,
   "target": 34962
  },
  {
   "buffer": 0,
   "byteLength": 157912,
   "byteOffset": 473736,
   "target": 34962
  },
  {
   "buffer": 0,
   "byteLength": 78956,
   "byteOffset": 631648,
   "target": 34962
  },
  {
   "buffer": 0,
   "byteLength": 315824,
   "byteOffset": 710604,
   "target": 34962
  },
  {
   "buffer": 0,
   "byteLength": 143976,
   "byteOffset": 1026428,
   "target": 34963
  },
  {
   "buffer": 0,
   "byteLength": 1280,
   "byteOffset": 1170404
  }
 ],
 "samplers": [
  {
   "magFilter": 9729,
   "minFilter": 9987
  }
 ],
 "buffers": [
  {
   "byteLength": 1171684,
   "uri": "arcanist_hoarfrost_chest_male.bin"
  }
 ]
}