{
 "asset": {
  "generator": "Khronos glTF Blender I/O v4.5.49",
  "version": "2.0"
 },
 "scene": 0,
 "scenes": [
  {
   "name": "Scene",
   "nodes": [
    21
   ]
  }
 ],
 "nodes": [
  {
   "name": "head",
   "rotation": [
    -0.08213425427675247,
    0,
    0,
    0.9966212511062622
   ],
   "scale": [
    1,
    0.9999999403953552,
    1
   ],
   "translation": [
    0,
    0.05373859778046608,
    1.4901161193847656e-08
   ]
  },
  {
   "children": [
    0
   ],
   "name": "neck",
   "rotation": [
    0.09345201402902603,
    0,
    0,
    0.995623767375946
   ],
   "scale": [
    1,
    0.9999999403953552,
    1
   ],
   "translation": [
    0,
    0.2200000286102295,
    0
   ]
  },
  {
   "name": "hand_l",
   "rotation": [
    0.02802448533475399,
    1.1928914034342597e-07,
    0.023515213280916214,
    0.9993306398391724
   ],
   "translation": [
    -4.6566128730773926e-09,
    0.2735321521759033,
    -4.190951585769653e-08
   ]
  },
  {
   "children": [
    2
   ],
   "name": "forearm_l",
   "rotation": [
    -0.053552042692899704,
    -8.215738489525393e-08,
    -0.04493548721075058,
    0.9975535273551941
   ],
   "scale": [
    0.9999999403953552,
    1,
    0.9999998807907104
   ],
   "translation": [
    -1.4901161193847656e-08,
    0.2998676896095276,
    -4.470348358154297e-08
   ]
  },
  {
   "children": [
    3
   ],
   "name": "upperarm_l",
   "rotation": [
    -0.3197757303714752,
    -0.33805763721466064,
    0.20346291363239288,
    0.8614310026168823
   ],
   "scale": [
    1,
    0.9999999403953552,
    1
   ],
   "translation": [
    -1.525040715932846e-08,
    0.18085838854312897,
    1.1059455573558807e-08
   ]
  },
  {
   "children": [
    4
   ],
   "name": "clavicle_l",
   "rotation": [
    -0.5486566424369812,
    -0.4976269006729126,
    -0.4976269006729126,
    0.4513433575630188
   ],
   "translation": [
    0,
    0.1619199514389038,
    -0.009999999776482582
   ]
  },
  {
   "name": "hand_r",
   "rotation": [
    0.02802448533475399,
    -1.1928914034342597e-07,
    -0.023515213280916214,
    0.9993306398391724
   ],
   "translation": [
    4.6566128730773926e-09,
    0.2735321521759033,
    -4.190951585769653e-08
   ]
  },
  {
   "children": [
    6
   ],
   "name": "forearm_r",
   "rotation": [
    -0.053552042692899704,
    8.215738489525393e-08,
    0.04493548721075058,
    0.9975535273551941
   ],
   "scale": [
    0.9999999403953552,
    1,
    0.9999998807907104
   ],
   "translation": [
    1.4901161193847656e-08,
    0.2998676896095276,
    -4.470348358154297e-08
   ]
  },
  {
   "children": [
    7
   ],
   "name": "upperarm_r",
   "rotation": [
    -0.3197757303714752,
    0.33805763721466064,
    -0.20346291363239288,
    0.8614310026168823
   ],
   "scale": [
    1,
    0.9999999403953552,
    1
   ],
   "translation": [
    1.525040715932846e-08,
    0.18085838854312897,
    1.1059455573558807e-08
   ]
  },
  {
   "children": [
    8
   ],
   "name": "clavicle_r",
   "rotation": [
    -0.5486566424369812,
    0.4976269006729126,
    0.4976269006729126,
    0.4513433575630188
   ],
   "translation": [
    0,
    0.1619199514389038,
    -0.009999999776482582
   ]
  },
  {
   "children": [
    1,
    5,
    9
   ],
   "name": "chest",
   "rotation": [
    -0.014200247824192047,
    0,
    0,
    0.9998992085456848
   ],
   "scale": [
    1,
    1,
    0.9999999403953552
   ],
   "translation": [
    0,
    0.17607104778289795,
    9.309469306550966e-10
   ]
  },
  {
   "children": [
    10
   ],
   "name": "spine",
   "rotation": [
    0.029973825439810753,
    0,
    0,
    0.9995507001876831
   ],
   "translation": [
    0,
    0.15847894549369812,
    1.862645149230957e-09
   ]
  },
  {
   "name": "foot_l",
   "rotation": [
    -0.6360833048820496,
    0.1277327686548233,
    -0.1414007693529129,
    0.7477220296859741
   ],
   "scale": [
    0.9999999403953552,
    1,
    0.9999998211860657
   ],
   "translation": [
    7.057678885757923e-09,
    0.4055864214897156,
    -1.8044374883174896e-09
   ]
  },
  {
   "children": [
    12
   ],
   "name": "calf_l",
   "rotation": [
    0.04899526759982109,
    0.03056136518716812,
    -0.03208209574222565,
    0.997815728187561
   ],
   "scale": [
    1,
    0.9999998807907104,
    1
   ],
   "translation": [
    1.7462298274040222e-10,
    0.3968465030193329,
    5.122274160385132e-09
   ]
  },
  {
   "children": [
    13
   ],
   "name": "thigh_l",
   "rotation": [
    0.9992609024047852,
    -0.02669607847929001,
    -0.027551893144845963,
    0.0024145168717950583
   ],
   "scale": [
    1.0000020265579224,
    1.0000003576278687,
    1
   ],
   "translation": [
    0.10208000242710114,
    -0.05277371406555176,
    -0.0016658357344567776
   ]
  },
  {
   "name": "foot_r",
   "rotation": [
    -0.6360833048820496,
    -0.1277327686548233,
    0.1414007693529129,
    0.7477220296859741
   ],
   "scale": [
    0.9999999403953552,
    1,
    0.9999998211860657
   ],
   "translation": [
    -7.057678885757923e-09,
    0.4055864214897156,
    -1.8044374883174896e-09
   ]
  },
  {
   "children": [
    15
   ],
   "name": "calf_r",
   "rotation": [
    0.04899526759982109,
    -0.03056136518716812,
    0.03208209574222565,
    0.997815728187561
   ],
   "scale": [
    1,
    0.9999998807907104,
    1
   ],
   "translation": [
    -1.7462298274040222e-10,
    0.3968465030193329,
    5.122274160385132e-09
   ]
  },
  {
   "children": [
    16
   ],
   "name": "thigh_r",
   "rotation": [
    0.9992609024047852,
    0.02669607847929001,
    0.027551893144845963,
    0.0024145168717950583
   ],
   "scale": [
    1.0000020265579224,
    1.0000003576278687,
    1
   ],
   "translation": [
    -0.10208000242710114,
    -0.05277371406555176,
    -0.0016658357344567776
   ]
  },
  {
   "children": [
    11,
    14,
    17
   ],
   "name": "pelvis",
   "rotation": [
    -0.01577693223953247,
    0,
    0,
    0.999875545501709
   ],
   "scale": [
    1,
    0.9999999403953552,
    1
   ],
   "translation": [
    0,
    0.9327999949455261,
    0
   ]
  },
  {
   "children": [
    18
   ],
   "name": "root"
  },
  {
   "mesh": 0,
   "name": "templar_crusader_legs_female",
   "skin": 0
  },
  {
   "children": [
    20,
    19
   ],
   "name": "templar_crusader_legs_female_rig"
  }
 ],
 "materials": [
  {
   "name": "templar_crusader_legs_female_baked",
   "normalTexture": {
    "index": 0
   },
   "pbrMetallicRoughness": {
    "baseColorTexture": {
     "index": 1
    },
    "metallicRoughnessTexture": {
     "index": 2
    }
   }
  }
 ],
 "meshes": [
  {
   "name": "chausses",
   "primitives": [
    {
     "attributes": {
      "POSITION": 0,
      "NORMAL": 1,
      "TEXCOORD_0": 2,
      "JOINTS_0": 3,
      "WEIGHTS_0": 4
     },
     "indices": 5,
     "material": 0
    }
   ]
  }
 ],
 "textures": [
  {
   "sampler": 0,
   "source": 0
  },
  {
   "sampler": 0,
   "source": 1
  },
  {
   "sampler": 0,
   "source": 2
  }
 ],
 "images": [
  {
   "mimeType": "image/jpeg",
   "name": "templar_crusader_legs_female_normal",
   "uri": "templar_crusader_legs_female_normal.jpg"
  },
  {
   "mimeType": "image/jpeg",
   "name": "templar_crusader_legs_female_albedo",
   "uri": "templar_crusader_legs_female_albedo.jpg"
  },
  {
   "mimeType": "image/jpeg",
   "name": "templar_crusader_legs_female_orm",
   "uri": "templar_crusader_legs_female_orm.jpg"
  }
 ],
 "skins": [
  {
   "inverseBindMatrices": 6,
   "joints": [
    19,
    18,
    11,
    10,
    1,
    0,
    5,
    4,
    3,
    2,
    9,
    8,
    7,
    6,
    14,
    13,
    12,
    17,
    16,
    15
   ],
   "name": "templar_crusader_legs_female_rig"
  }
 ],
 "accessors": [
  {
   "bufferView": 0,
   "componentType": 5126,
   "count": 10542,
   "max": [
    0.18925684690475464,
    0.8727499842643738,
    0.10873538255691528
   ],
   "min": [
    -0.18905659019947052,
    0.06420823186635971,
    -0.1561628133058548
   ],
   "type": "VEC3"
  },
  {
   "bufferView": 1,
   "componentType": 5126,
   "count": 10542,
   "type": "VEC3"
  },
  {
   "bufferView": 2,
   "componentType": 5126,
   "count": 10542,
   "type": "VEC2"
  },
  {
   "bufferView": 3,
   "componentType": 5121,
   "count": 10542,
   "type": "VEC4"
  },
  {
   "bufferView": 4,
   "componentType": 5126,
   "count": 10542,
   "type": "VEC4"
  },
  {
   "bufferView": 5,
   "componentType": 5123,
   "count": 36000,
   "type": "SCALAR"
  },
  {
   "bufferView": 6,
   "componentType": 5126,
   "count": 20,
   "type": "MAT4"
  }
 ],
 "bufferViews": [
  {
   "buffer": 0,
   "byteLength": 126504,
   "byteOffset": 0,
   "target": 34962
  },
  {
   "buffer": 0,
   "byteLength": 126504,
   "byteOffset": 126504,
   "target": 34962
  },
  {
   "buffer": 0,
   "byteLength": 84336,
   "byteOffset": 253008,
   "target": 34962
  },
  {
   "buffer": 0,
   "byteLength": 42168,
   "byteOffset": 337344,
   "target": 34962
  },
  {
   "buffer": 0,
   "byteLength": 168672,
   "byteOffset": 379512,
   "target": 34962
  },
  {
   "buffer": 0,
   "byteLength": 72000,
   "byteOffset": 548184,
   "target": 34963
  },
  {
   "buffer": 0,
   "byteLength": 1280,
   "byteOffset": 620184
  }
 ],
 "samplers": [
  {
   "magFilter": 9729,
   "minFilter": 9987
  }
 ],
 "buffers": [
  {
   "byteLength": 621464,
   "uri": "templar_crusader_legs_female.bin"
  }
 ]
}